<svg width="80" height="80" viewBox="0 0 80 80" fill="none" xmlns="http://www.w3.org/2000/svg">
<path d="M80 40C80 47.9112 77.654 55.6448 73.2588 62.2228C68.8635 68.8008 62.6164 73.9277 55.3073 76.9552C47.9983 79.9827 39.9556 80.7748 32.1964 79.2314C24.4372 77.688 17.3098 73.8784 11.7157 68.2843C6.12164 62.6902 2.31202 55.5628 0.768608 47.8036C-0.774803 40.0444 0.017334 32.0017 3.04484 24.6927C6.07234 17.3836 11.1992 11.1365 17.7772 6.74121C24.3552 2.34596 32.0888 0 40 0C50.6024 0.0203307 60.7648 4.24113 68.2618 11.7382C75.7589 19.2352 79.9797 29.3976 80 40ZM63.0769 40C63.074 39.5038 62.954 39.0154 62.7268 38.5743C62.4996 38.1332 62.1715 37.752 61.7692 37.4615L46.3846 26.6923C45.9212 26.3707 45.3784 26.1827 44.8154 26.1488C44.2524 26.1149 43.6909 26.2364 43.1923 26.5C42.696 26.7637 42.2802 27.1567 41.989 27.6374C41.6979 28.1182 41.5422 28.6687 41.5385 29.2308V40C41.5355 39.5038 41.4156 39.0154 41.1884 38.5743C40.9611 38.1332 40.6331 37.752 40.2308 37.4615L24.8462 26.6923C24.3828 26.3707 23.84 26.1827 23.277 26.1488C22.714 26.1149 22.1525 26.2364 21.6539 26.5C21.1575 26.7637 20.7417 27.1567 20.4506 27.6374C20.1594 28.1182 20.0037 28.6687 20 29.2308V50.7692C20 51.5853 20.3242 52.3679 20.9012 52.9449C21.4783 53.522 22.2609 53.8461 23.0769 53.8461C23.7059 53.8385 24.3196 53.6517 24.8462 53.3077L40.2308 42.5385C40.6331 42.248 40.9611 41.8668 41.1884 41.4257C41.4156 40.9846 41.5355 40.4962 41.5385 40V50.7692C41.5385 51.5853 41.8626 52.3679 42.4397 52.9449C43.0167 53.522 43.7993 53.8461 44.6154 53.8461C45.2443 53.8385 45.8581 53.6517 46.3846 53.3077L61.7692 42.5385C62.1715 42.248 62.4996 41.8668 62.7268 41.4257C62.954 40.9846 63.074 40.4962 63.0769 40Z" fill="#E0E0E0"/>
</svg>
