<svg width="49" height="49" viewBox="0 0 49 49" fill="none" xmlns="http://www.w3.org/2000/svg">
<path d="M24.7842 4.02917L24.2246 4.03686C13.443 4.3335 4.78418 13.1763 4.78418 24.0292C4.78418 35.0492 13.7442 44.0292 24.7842 44.0292C35.8042 44.0292 44.7842 35.0492 44.7842 24.0292C44.7842 12.9892 35.8042 4.02917 24.7842 4.02917ZM20.8242 16.0292C21.4242 15.4292 22.3642 15.4292 22.9442 16.0292L29.9242 22.9692C30.2042 23.2492 30.3642 23.6292 30.3642 24.0292C30.3642 24.4292 30.2042 24.8092 29.9242 25.0892L22.9442 32.0292C22.6642 32.3292 22.2842 32.4692 21.9042 32.4692C21.5042 32.4692 21.1242 32.3292 20.8242 32.0292C20.2442 31.4292 20.2442 30.4892 20.8442 29.9092L26.7442 24.0292L20.8442 18.1492C20.2442 17.5692 20.2442 16.6092 20.8242 16.0292Z" fill="white"/>
</svg>
