<svg width="105" height="105" viewBox="0 0 105 105" fill="none" xmlns="http://www.w3.org/2000/svg">
<path d="M52.5 8.75L53.724 8.76682C77.3088 9.41571 96.25 28.7593 96.25 52.5C96.25 76.6063 76.65 96.25 52.5 96.25C28.3937 96.25 8.75 76.6063 8.75 52.5C8.75 28.35 28.3937 8.75 52.5 8.75ZM61.1625 35C59.85 33.6875 57.7938 33.6875 56.525 35L41.2562 50.1813C40.6437 50.7938 40.2938 51.625 40.2938 52.5C40.2938 53.375 40.6437 54.2062 41.2562 54.8187L56.525 70C57.1375 70.6563 57.9687 70.9625 58.8 70.9625C59.675 70.9625 60.5062 70.6563 61.1625 70C62.4312 68.6875 62.4313 66.6312 61.1188 65.3625L48.2125 52.5L61.1188 39.6375C62.4313 38.3687 62.4312 36.2687 61.1625 35Z" fill="white"/>
</svg>
