<svg width="89" height="89" viewBox="0 0 89 89" fill="none" xmlns="http://www.w3.org/2000/svg">
<path d="M0.75 44.5C0.75 32.8968 5.35936 21.7688 13.5641 13.5641C21.7688 5.35936 32.8968 0.75 44.5 0.75C50.2453 0.75 55.9344 1.88163 61.2424 4.08027C66.5504 6.27891 71.3734 9.50151 75.4359 13.5641C79.4985 17.6266 82.7211 22.4496 84.9197 27.7576C87.1184 33.0656 88.25 38.7547 88.25 44.5C88.25 56.1032 83.6406 67.2312 75.4359 75.4359C67.2312 83.6406 56.1032 88.25 44.5 88.25C38.7547 88.25 33.0656 87.1184 27.7576 84.9197C22.4496 82.7211 17.6266 79.4985 13.5641 75.4359C5.35936 67.2312 0.75 56.1032 0.75 44.5ZM70.75 42.125C70.75 41.0204 69.8546 40.125 68.75 40.125H40.5784C38.7966 40.125 37.9043 37.9707 39.1642 36.7108L49.6483 26.2267C50.4293 25.4457 50.4293 24.1793 49.6483 23.3983L46.2642 20.0142C45.4832 19.2332 44.2168 19.2332 43.4358 20.0142L20.3642 43.0858C19.5832 43.8668 19.5832 45.1332 20.3642 45.9142L43.4358 68.9858C44.2168 69.7668 45.4832 69.7668 46.2642 68.9858L49.6483 65.6017C50.4293 64.8207 50.4293 63.5543 49.6483 62.7733L39.1642 52.2892C37.9043 51.0293 38.7966 48.875 40.5784 48.875H68.75C69.8546 48.875 70.75 47.9796 70.75 46.875V42.125Z" fill="white"/>
</svg>
