<svg width="163" height="157" viewBox="0 0 163 157" fill="none" xmlns="http://www.w3.org/2000/svg">
<path d="M10 78.5C10 92.048 14.1836 105.292 22.0218 116.557C29.86 127.821 41.0008 136.601 54.0352 141.786C67.0697 146.97 81.4125 148.327 95.2498 145.684C109.087 143.041 121.797 136.517 131.774 126.937C141.75 117.357 148.544 105.151 151.296 91.8637C154.048 78.576 152.636 64.8029 147.237 52.2862C141.838 39.7694 132.695 29.0712 120.964 21.5443C109.233 14.0175 95.4417 10 81.3333 10C62.4257 10.0348 44.3028 17.2629 30.9331 30.1016C17.5634 42.9403 10.0363 60.3434 10 78.5ZM40.1795 78.5C40.1847 77.6503 40.3986 76.8138 40.8038 76.0585C41.209 75.3031 41.7941 74.6502 42.5115 74.1529L69.9474 55.7106C70.7738 55.1599 71.7418 54.8379 72.7458 54.7799C73.7498 54.7218 74.7512 54.9298 75.6404 55.3812C76.5255 55.8328 77.267 56.5058 77.7863 57.3291C78.3055 58.1524 78.5831 59.0952 78.5897 60.0577V78.5C78.595 77.6503 78.8089 76.8138 79.2141 76.0585C79.6193 75.3031 80.2044 74.6502 80.9218 74.1529L108.358 55.7106C109.184 55.1599 110.152 54.8379 111.156 54.7799C112.16 54.7218 113.161 54.9298 114.051 55.3812C114.936 55.8328 115.677 56.5058 116.197 57.3291C116.716 58.1524 116.993 59.0952 117 60.0577V96.9423C117 98.3398 116.422 99.68 115.393 100.668C114.364 101.656 112.968 102.212 111.513 102.212C110.391 102.198 109.297 101.879 108.358 101.289L80.9218 82.8471C80.2044 82.3497 79.6193 81.6969 79.2141 80.9415C78.8089 80.1861 78.595 79.3497 78.5897 78.5V96.9423C78.5897 98.3398 78.0116 99.68 76.9826 100.668C75.9535 101.656 74.5578 102.212 73.1026 102.212C71.9809 102.198 70.8864 101.879 69.9474 101.289L42.5115 82.8471C41.7941 82.3497 41.209 81.6969 40.8038 80.9415C40.3986 80.1861 40.1847 79.3497 40.1795 78.5Z" fill="white" fill-opacity="0.68"/>
</svg>
