<svg width="114" height="88" viewBox="0 0 114 88" fill="none" xmlns="http://www.w3.org/2000/svg">
<path d="M21.75 10C18.6337 10 15.645 11.194 13.4415 13.3195C11.2379 15.4449 10 18.3275 10 21.3333L10 66.6667C10 69.6725 11.2379 72.5551 13.4415 74.6805C15.645 76.806 18.6337 78 21.75 78H92.25C95.3663 78 98.3549 76.806 100.559 74.6805C102.762 72.5551 104 69.6725 104 66.6667V21.3333C104 18.3275 102.762 15.4449 100.559 13.3195C98.3549 11.194 95.3663 10 92.25 10H21.75ZM39.5336 32.678C34.6574 32.678 31.7845 36.316 31.7845 42.6117V46.822C31.7845 53.095 34.6045 56.6083 39.5336 56.6083C43.5874 56.6083 46.2194 54.1433 46.5014 50.6583H53.24V51.3043C52.9051 57.804 47.2005 62.2863 39.4808 62.2863C30.0044 62.2863 24.6875 56.461 24.6875 46.822V42.589C24.6875 32.9557 30.0573 27 39.4808 27C47.224 27 52.9345 31.607 53.24 38.3333V38.9567H46.5014C46.2194 35.3413 43.5345 32.678 39.5336 32.678ZM75.6061 32.678C70.724 32.678 67.857 36.316 67.857 42.6117V46.822C67.857 53.095 70.677 56.6083 75.6003 56.6083C79.654 56.6083 82.2919 54.1433 82.5739 50.6583H89.3125V51.3043C88.9776 57.804 83.273 62.2863 75.5533 62.2863C66.0769 62.2863 60.76 56.461 60.76 46.822V42.589C60.76 32.9557 66.1297 27 75.5533 27C83.2965 27 89.007 31.607 89.3125 38.3333V38.9567H82.5739C82.2919 35.3413 79.6129 32.678 75.6061 32.678Z" fill="white"/>
</svg>
