<svg width="40" height="40" viewBox="0 0 40 40" fill="none" xmlns="http://www.w3.org/2000/svg">
<path d="M9 8H12.17C12.3769 8.58516 12.7602 9.09174 13.267 9.44994C13.7739 9.80814 14.3793 10.0003 15 10H21C21.6207 10.0003 22.2261 9.80814 22.733 9.44994C23.2398 9.09174 23.6231 8.58516 23.83 8H27C27.2652 8 27.5196 8.10536 27.7071 8.29289C27.8946 8.48043 28 8.73478 28 9V11C28 11.2652 28.1054 11.5196 28.2929 11.7071C28.4804 11.8946 28.7348 12 29 12C29.2652 12 29.5196 11.8946 29.7071 11.7071C29.8946 11.5196 30 11.2652 30 11V9C30 8.20435 29.6839 7.44129 29.1213 6.87868C28.5587 6.31607 27.7956 6 27 6H23.83C23.6231 5.41484 23.2398 4.90826 22.733 4.55006C22.2261 4.19186 21.6207 3.99968 21 4H15C14.3793 3.99968 13.7739 4.19186 13.267 4.55006C12.7602 4.90826 12.3769 5.41484 12.17 6H9C8.20435 6 7.44129 6.31607 6.87868 6.87868C6.31607 7.44129 6 8.20435 6 9V33C6 33.7956 6.31607 34.5587 6.87868 35.1213C7.44129 35.6839 8.20435 36 9 36H15C15.2652 36 15.5196 35.8946 15.7071 35.7071C15.8946 35.5196 16 35.2652 16 35C16 34.7348 15.8946 34.4804 15.7071 34.2929C15.5196 34.1054 15.2652 34 15 34H9C8.73478 34 8.48043 33.8946 8.29289 33.7071C8.10536 33.5196 8 33.2652 8 33V9C8 8.73478 8.10536 8.48043 8.29289 8.29289C8.48043 8.10536 8.73478 8 9 8ZM15 8C14.7348 8 14.4804 7.89464 14.2929 7.70711C14.1054 7.51957 14 7.26522 14 7C14 6.73478 14.1054 6.48043 14.2929 6.29289C14.4804 6.10536 14.7348 6 15 6H21C21.2652 6 21.5196 6.10536 21.7071 6.29289C21.8946 6.48043 22 6.73478 22 7C22 7.26522 21.8946 7.51957 21.7071 7.70711C21.5196 7.89464 21.2652 8 21 8H15ZM21 14C20.2044 14 19.4413 14.3161 18.8787 14.8787C18.3161 15.4413 18 16.2044 18 17V33C18 33.7956 18.3161 34.5587 18.8787 35.1213C19.4413 35.6839 20.2044 36 21 36H31C31.7956 36 32.5587 35.6839 33.1213 35.1213C33.6839 34.5587 34 33.7956 34 33V17C34 16.2044 33.6839 15.4413 33.1213 14.8787C32.5587 14.3161 31.7956 14 31 14H21Z" fill="#49454F"/>
</svg>
