<svg width="163" height="157" viewBox="0 0 163 157" fill="none" xmlns="http://www.w3.org/2000/svg">
<path d="M153 78.5C153 92.048 148.816 105.292 140.978 116.557C133.14 127.821 121.999 136.601 108.965 141.786C95.9303 146.97 81.5875 148.327 67.7502 145.684C53.9129 143.041 41.2025 136.517 31.2264 126.937C21.2503 117.357 14.4564 105.151 11.704 91.8637C8.9516 78.576 10.3642 64.8029 15.7633 52.2862C21.1623 39.7694 30.3053 29.0712 42.036 21.5443C53.7667 14.0175 67.5583 10 81.6667 10C100.574 10.0348 118.697 17.2629 132.067 30.1016C145.437 42.9403 152.964 60.3434 153 78.5ZM122.821 78.5C122.815 77.6503 122.601 76.8138 122.196 76.0585C121.791 75.3031 121.206 74.6502 120.488 74.1529L93.0526 55.7106C92.2262 55.1599 91.2582 54.8379 90.2542 54.7799C89.2502 54.7218 88.2488 54.9298 87.3596 55.3812C86.4745 55.8328 85.733 56.5058 85.2137 57.3291C84.6945 58.1524 84.4169 59.0952 84.4103 60.0577V78.5C84.405 77.6503 84.1911 76.8138 83.7859 76.0585C83.3807 75.3031 82.7956 74.6502 82.0782 74.1529L54.6423 55.7106C53.816 55.1599 52.8479 54.8379 51.8439 54.7799C50.8399 54.7218 49.8386 54.9298 48.9494 55.3812C48.0642 55.8328 47.3227 56.5058 46.8035 57.3291C46.2843 58.1524 46.0066 59.0952 46 60.0577V96.9423C46 98.3398 46.5781 99.68 47.6072 100.668C48.6362 101.656 50.0319 102.212 51.4872 102.212C52.6088 102.198 53.7033 101.879 54.6423 101.289L82.0782 82.8471C82.7956 82.3497 83.3807 81.6969 83.7859 80.9415C84.1911 80.1862 84.405 79.3497 84.4103 78.5V96.9423C84.4103 98.3398 84.9884 99.68 86.0174 100.668C87.0465 101.656 88.4422 102.212 89.8974 102.212C91.0191 102.198 92.1136 101.879 93.0526 101.289L120.488 82.8471C121.206 82.3497 121.791 81.6969 122.196 80.9415C122.601 80.1862 122.815 79.3497 122.821 78.5Z" fill="white" fill-opacity="0.68"/>
</svg>
