<svg width="105" height="105" viewBox="0 0 105 105" fill="none" xmlns="http://www.w3.org/2000/svg">
<path fill-rule="evenodd" clip-rule="evenodd" d="M96.25 52.5C96.25 76.6631 76.6631 96.25 52.5 96.25C28.3369 96.25 8.75 76.6631 8.75 52.5C8.75 28.3369 28.3369 8.75 52.5 8.75C76.6631 8.75 96.25 28.3369 96.25 52.5ZM47.0181 26.2237C47.0251 27.0932 46.6867 27.93 46.0772 28.5501C45.4677 29.1703 44.637 29.5232 43.7675 29.5312C40.0225 29.5619 37.4063 29.6844 35.4375 30.0737C33.565 30.4412 32.5238 31.0013 31.7625 31.7625C31.0013 32.5238 30.4412 33.565 30.0737 35.4375C29.6888 37.4063 29.5619 40.0225 29.5312 43.7675C29.5237 44.6377 29.1708 45.4693 28.5501 46.0794C27.9294 46.6894 27.0918 47.0279 26.2216 47.0203C25.3513 47.0128 24.5197 46.6598 23.9097 46.0391C23.2997 45.4185 22.9612 44.5809 22.9688 43.7106C22.9994 39.9919 23.1175 36.8112 23.6337 34.1775C24.1675 31.4519 25.1694 29.0719 27.1206 27.1206C29.0719 25.1694 31.4519 24.1675 34.1775 23.6337C36.8112 23.1175 39.9875 22.9994 43.7106 22.9688C44.1415 22.9653 44.5689 23.0467 44.9683 23.2084C45.3677 23.3702 45.7314 23.609 46.0385 23.9112C46.3457 24.2135 46.5903 24.5733 46.7583 24.9701C46.9264 25.3668 47.0147 25.7928 47.0181 26.2237ZM57.9688 26.2237C57.9722 25.7925 58.0606 25.3661 58.229 24.969C58.3973 24.572 58.6423 24.212 58.9499 23.9097C59.2575 23.6073 59.6217 23.3686 60.0216 23.2072C60.4215 23.0457 60.8494 22.9647 61.2806 22.9688C64.9994 22.9994 68.1756 23.1175 70.8138 23.6337C73.5394 24.1675 75.915 25.1694 77.8662 27.1206C79.8175 29.0719 80.8238 31.4519 81.3575 34.1775C81.8738 36.8112 81.9875 39.9875 82.0181 43.7106C82.0219 44.1415 81.9407 44.5689 81.7792 44.9685C81.6178 45.368 81.3792 45.7318 81.0772 46.0392C80.7751 46.3465 80.4155 46.5913 80.0188 46.7597C79.6222 46.928 79.1962 47.0166 78.7653 47.0203C78.3344 47.024 77.907 46.9429 77.5075 46.7814C77.1079 46.62 76.7441 46.3814 76.4368 46.0794C76.1295 45.7773 75.8846 45.4177 75.7163 45.021C75.5479 44.6243 75.4594 44.1984 75.4556 43.7675C75.425 40.0225 75.3025 37.4063 74.9175 35.4375C74.55 33.565 73.99 32.5238 73.2288 31.7625C72.4631 31.0013 71.4263 30.4412 69.5537 30.0737C67.585 29.6888 64.9688 29.5619 61.2238 29.5312C60.7928 29.5278 60.3668 29.4395 59.9701 29.2715C59.5733 29.1034 59.2135 28.8588 58.9112 28.5517C58.609 28.2445 58.3702 27.8809 58.2084 27.4814C58.0467 27.082 57.9653 26.6547 57.9688 26.2237ZM29.5312 61.2238C29.5237 60.3535 29.1708 59.5219 28.5501 58.9119C27.9294 58.3019 27.0918 57.9634 26.2216 57.9709C25.3513 57.9785 24.5197 58.3314 23.9097 58.9521C23.2997 59.5728 22.9612 60.4104 22.9688 61.2806C22.9994 64.9994 23.1175 68.18 23.6337 70.8138C24.1675 73.5394 25.1694 75.9194 27.1206 77.8706C29.0719 79.8219 31.4519 80.8238 34.1775 81.3575C36.8112 81.8781 39.9875 81.9919 43.7106 82.0225C44.5809 82.03 45.4185 81.6916 46.0391 81.0816C46.6598 80.4715 47.0128 79.6399 47.0203 78.7697C47.0279 77.8994 46.6894 77.0618 46.0794 76.4412C45.4693 75.8205 44.6377 75.4675 43.7675 75.46C40.0225 75.4294 37.4063 75.3025 35.4375 74.9219C33.565 74.5544 32.5238 73.99 31.7625 73.2288C31.0013 72.4675 30.4412 71.4263 30.0737 69.5537C29.6888 67.585 29.5619 64.9688 29.5312 61.2238ZM78.7675 57.9731C79.637 57.9812 80.4677 58.3341 81.0772 58.9543C81.6867 59.5744 82.0251 60.4111 82.0181 61.2806C81.9875 64.9994 81.8738 68.18 81.3575 70.8138C80.8238 73.5394 79.8175 75.9194 77.8662 77.8706C75.915 79.8219 73.535 80.8238 70.8138 81.3575C68.1756 81.8781 64.9994 81.9919 61.2762 82.0225C60.8453 82.0259 60.418 81.9445 60.0186 81.7828C59.6192 81.6211 59.2555 81.3823 58.9484 81.08C58.6412 80.7777 58.3966 80.418 58.2286 80.0212C58.0605 79.6244 57.9722 79.1984 57.9688 78.7675C57.9653 78.3366 58.0468 77.9092 58.2085 77.5098C58.3702 77.1104 58.609 76.7467 58.9112 76.4396C59.2135 76.1325 59.5733 75.8879 59.9701 75.7198C60.3668 75.5517 60.7929 75.4634 61.2238 75.46C64.9688 75.4294 67.585 75.3025 69.5494 74.9219C71.4263 74.5544 72.4631 73.99 73.2244 73.2288C73.99 72.4675 74.55 71.4263 74.9175 69.5537C75.3025 67.585 75.425 64.9688 75.46 61.2238C75.4681 60.3543 75.821 59.5235 76.4411 58.914C77.0613 58.3045 77.898 57.9661 78.7675 57.9731Z" fill="white"/>
</svg>
