<svg width="53" height="53" viewBox="0 0 53 53" fill="none" xmlns="http://www.w3.org/2000/svg">
<path d="M26.783 4.90393C15.1165 4.90393 5.65796 14.3624 5.65796 26.0289C5.65796 37.6954 15.1165 47.1539 26.783 47.1539C38.4494 47.1539 47.908 37.6954 47.908 26.0289C47.908 14.3624 38.4494 4.90393 26.783 4.90393ZM35.2827 33.6106C33.8214 35.2413 31.9213 36.4167 29.8097 36.9961C27.698 37.5755 25.4641 37.5345 23.3752 36.8779C21.2862 36.2213 19.4306 34.977 18.0301 33.2937C16.6297 31.6104 15.7437 29.5593 15.478 27.3858C15.142 27.6082 14.7354 27.6977 14.337 27.6372C13.9386 27.5766 13.577 27.3702 13.3223 27.058C13.0675 26.7458 12.9379 26.3501 12.9584 25.9477C12.979 25.5453 13.1483 25.1649 13.4336 24.8803L15.8305 22.4834C16.1308 22.1831 16.5366 22.0124 16.9613 22.0076C17.3859 22.0029 17.7955 22.1645 18.1024 22.458L20.608 24.8549C20.8893 25.1219 21.0659 25.4807 21.1057 25.8665C21.1456 26.2523 21.0462 26.6396 20.8254 26.9585C20.6046 27.2774 20.2771 27.5069 19.9019 27.6053C19.5268 27.7038 19.1288 27.6648 18.7798 27.4955C19.0582 28.9931 19.7506 30.3828 20.7787 31.5068C21.8067 32.6309 23.1291 33.4444 24.596 33.855C26.0629 34.2656 27.6155 34.2569 29.0777 33.8299C30.5399 33.4029 31.8532 32.5747 32.8686 31.4392C33.16 31.131 33.5604 30.9489 33.9842 30.9319C34.408 30.9149 34.8217 31.0643 35.1369 31.3482C35.4521 31.6321 35.6437 32.0279 35.671 32.4512C35.6982 32.8745 35.5589 33.2917 35.2827 33.6136V33.6106ZM40.1334 27.1776L37.7365 29.5745C37.4362 29.8747 37.0303 30.0455 36.6057 30.0502C36.1811 30.055 35.7715 29.8933 35.4645 29.5999L32.959 27.203C32.683 26.9374 32.5098 26.5829 32.4698 26.2019C32.4298 25.821 32.5256 25.4382 32.7403 25.1211C32.9551 24.804 33.2749 24.5729 33.6435 24.4686C34.012 24.3643 34.4055 24.3936 34.7546 24.5512C34.4755 23.0569 33.7837 21.6706 32.7575 20.5491C31.7313 19.4277 30.4116 18.6159 28.9478 18.2057C27.4841 17.7956 25.9348 17.8033 24.4752 18.2281C23.0157 18.653 21.7042 19.4779 20.6892 20.6096C20.5467 20.7684 20.3743 20.8976 20.1818 20.9898C19.9894 21.0821 19.7807 21.1355 19.5676 21.147C19.3545 21.1586 19.1412 21.1281 18.9399 21.0572C18.7386 20.9863 18.5533 20.8765 18.3944 20.734C18.2356 20.5915 18.1063 20.4191 18.0141 20.2266C17.9219 20.0342 17.8685 19.8254 17.8569 19.6123C17.8454 19.3992 17.8759 19.186 17.9468 18.9847C18.0177 18.7834 18.1275 18.598 18.27 18.4392C19.7325 16.8086 21.634 15.6341 23.7469 15.0565C25.8597 14.479 28.0943 14.5227 30.1829 15.1826C32.2715 15.8425 34.1256 17.0905 35.5231 18.7771C36.9207 20.4637 37.8023 22.5175 38.0625 24.6924C38.3962 24.4648 38.8028 24.3697 39.2028 24.4256C39.6028 24.4816 39.9677 24.6844 40.2263 24.9948C40.4849 25.3051 40.6186 25.7006 40.6014 26.1041C40.5842 26.5077 40.4174 26.8904 40.1334 27.1776Z" fill="white"/>
<circle cx="42.9441" cy="11.4861" r="7.22857" fill="white"/>
<path d="M42.6302 3.00073C38.1359 3.00073 34.4587 6.67788 34.4587 11.1722C34.4587 15.6664 38.1359 19.3436 42.6302 19.3436C47.1245 19.3436 50.8016 15.6664 50.8016 11.1722C50.8016 6.67788 47.1245 3.00073 42.6302 3.00073ZM40.9959 15.2579L36.9102 11.1722L38.0623 10.02L40.9959 12.9454L47.198 6.74325L48.3502 7.90359L40.9959 15.2579Z" fill="#00C853"/>
</svg>
