<svg width="33" height="31" viewBox="0 0 33 31" fill="none" xmlns="http://www.w3.org/2000/svg">
<path d="M3.37067 10.0029C3.56738 10.0599 3.75094 10.1551 3.91083 10.2831C4.07072 10.4111 4.20381 10.5694 4.3025 10.7488C4.40118 10.9283 4.46353 11.1255 4.48597 11.3291C4.50841 11.5326 4.4905 11.7386 4.43327 11.9353C3.51104 15.1118 3.88829 18.5245 5.48203 21.4228C7.07577 24.3212 9.75549 26.4678 12.9318 27.3905C13.1284 27.4477 13.3118 27.543 13.4715 27.6711C13.6312 27.7991 13.7642 27.9573 13.8627 28.1367C13.9613 28.3162 14.0236 28.5132 14.046 28.7167C14.0684 28.9202 14.0505 29.1261 13.9933 29.3227C13.9362 29.5192 13.8409 29.7026 13.7128 29.8623C13.5848 30.0221 13.4266 30.155 13.2471 30.2536C13.0677 30.3521 12.8707 30.4144 12.6672 30.4368C12.4637 30.4592 12.2578 30.4414 12.0612 30.3842C3.79372 27.9831 -0.962819 19.333 1.43825 11.0655C1.49526 10.8688 1.59049 10.6852 1.71849 10.5253C1.84648 10.3654 2.00474 10.2323 2.18421 10.1337C2.36368 10.035 2.56084 9.97262 2.76442 9.95018C2.968 9.92774 3.17401 9.94565 3.37067 10.0029ZM20.757 0.442498C29.0252 2.84493 33.781 11.4937 31.3799 19.7612C31.2592 20.1516 30.9899 20.4789 30.6301 20.6727C30.2703 20.8665 29.8488 20.9112 29.4564 20.7973C29.0639 20.6833 28.732 20.4198 28.532 20.0634C28.332 19.707 28.2799 19.2864 28.387 18.892C29.3093 15.7155 28.932 12.3028 27.3383 9.40449C25.7445 6.50614 23.0648 4.35952 19.8885 3.43676C19.4914 3.3216 19.1564 3.05342 18.9571 2.69122C18.7577 2.32902 18.7104 1.90247 18.8256 1.5054C18.9408 1.10834 19.2089 0.773287 19.5711 0.573953C19.9333 0.374619 20.3599 0.327334 20.757 0.442498ZM9.58084 11.6997C9.97769 11.815 10.3125 12.0833 10.5116 12.4454C10.7107 12.8075 10.7579 13.2339 10.6427 13.6308C10.4189 14.4013 10.349 15.2083 10.4371 16.0058C10.5252 16.8033 10.7696 17.5756 11.1562 18.2787C11.5428 18.9818 12.0641 19.6018 12.6903 20.1034C13.3165 20.605 14.0354 20.9783 14.806 21.202C15.0057 21.2563 15.1926 21.3498 15.3558 21.477C15.519 21.6043 15.6552 21.7628 15.7565 21.9432C15.8578 22.1237 15.9221 22.3225 15.9457 22.5281C15.9693 22.7337 15.9518 22.942 15.8941 23.1407C15.8363 23.3394 15.7396 23.5247 15.6095 23.6856C15.4795 23.8466 15.3186 23.98 15.1364 24.0782C14.9542 24.1763 14.7543 24.2372 14.5483 24.2572C14.3424 24.2773 14.1345 24.2561 13.9368 24.1949C11.5869 23.5124 9.60444 21.9245 8.42541 19.7803C7.24638 17.6361 6.96738 15.1114 7.64978 12.7616C7.7651 12.3647 8.03332 12.0299 8.39544 11.8308C8.75757 11.6317 9.18396 11.5845 9.58084 11.6997ZM19.0845 6.47384C21.4343 7.15633 23.4168 8.74432 24.5959 10.8885C25.7749 13.0326 26.0539 15.5573 25.3715 17.9072C25.3145 18.1038 25.2193 18.2873 25.0914 18.4471C24.9634 18.6069 24.8053 18.74 24.6259 18.8387C24.4466 18.9374 24.2496 18.9998 24.0461 19.0223C23.8426 19.0449 23.6367 19.0271 23.4401 18.9701C23.2435 18.9131 23.0601 18.8179 22.9003 18.69C22.7404 18.5621 22.6074 18.4039 22.5087 18.2246C22.41 18.0452 22.3476 17.8482 22.325 17.6447C22.3025 17.4413 22.3202 17.2354 22.3772 17.0387C22.601 16.2682 22.6709 15.4612 22.5828 14.6637C22.4947 13.8662 22.2504 13.0939 21.8638 12.3908C21.4771 11.6877 20.9558 11.0677 20.3296 10.5661C19.7034 10.0645 18.9845 9.69123 18.2139 9.4675C17.817 9.35205 17.4821 9.08363 17.283 8.72129C17.0839 8.35895 17.037 7.93237 17.1524 7.53539C17.2678 7.1384 17.5363 6.80354 17.8986 6.60446C18.2609 6.40538 18.6875 6.3584 19.0845 6.47384ZM15.4466 13.401C15.7156 13.2531 16.0111 13.1596 16.3163 13.1258C16.6214 13.0921 16.9302 13.1188 17.225 13.2045C17.5199 13.2901 17.7949 13.4329 18.0345 13.6249C18.2741 13.8168 18.4736 14.054 18.6215 14.323C18.7695 14.5921 18.8629 14.8876 18.8967 15.1927C18.9304 15.4979 18.9037 15.8067 18.818 16.1015C18.7324 16.3963 18.5896 16.6714 18.3976 16.911C18.2057 17.1506 17.9685 17.3501 17.6995 17.498C17.1562 17.7967 16.5164 17.8674 15.921 17.6945C15.3256 17.5216 14.8233 17.1192 14.5245 16.5759C14.2258 16.0326 14.1551 15.3929 14.328 14.7975C14.5009 14.2021 14.9033 13.6997 15.4466 13.401Z" fill="white"/>
</svg>
