<svg width="22" height="26" viewBox="0 0 27 31" fill="none" xmlns="http://www.w3.org/2000/svg">
<path d="M23.0941 30.2915C23.0941 30.1417 23.0941 30.0127 23.0941 29.8842C23.0941 29.0319 23.0854 28.1796 23.0993 27.3272C23.1034 27.0691 23.0196 27.0015 22.7829 27.0046C21.9013 27.0174 21.019 27.0174 20.1368 27.0052C19.9141 27.0021 19.8565 27.0795 19.8588 27.3011C19.8681 28.2039 19.8571 29.1074 19.8664 30.0102C19.8687 30.2318 19.81 30.311 19.5884 30.3104C15.4011 30.3043 11.2138 30.3031 7.02653 30.3092C6.78925 30.3098 6.73225 30.2239 6.73516 29.9914C6.74621 29.0989 6.73458 28.2057 6.74447 27.3126C6.74679 27.0813 6.68922 26.9967 6.45194 27.0003C5.48421 27.0143 4.5159 27.0064 3.51735 27.0064C3.51095 27.1458 3.50106 27.2639 3.50106 27.3826C3.4999 28.2551 3.49292 29.1281 3.5063 30.0005C3.50979 30.244 3.43593 30.3116 3.2097 30.3086C2.29896 30.2964 1.38765 30.297 0.476331 30.3067C0.261151 30.3092 0.190782 30.2385 0.19369 30.0115C0.204158 29.1591 0.19776 28.3068 0.19776 27.4545C0.19776 18.6469 0.19776 9.84001 0.19776 1.03246C0.19776 0.582558 0.19776 0.581949 0.624631 0.581949C1.47779 0.581949 2.33037 0.588646 3.18353 0.578296C3.41906 0.575252 3.50746 0.651353 3.50397 0.908267C3.49234 1.80077 3.50572 2.69388 3.49583 3.587C3.4935 3.81226 3.55922 3.8847 3.77673 3.88227C4.65838 3.87192 5.54062 3.86948 6.42286 3.8847C6.6898 3.88957 6.74505 3.78242 6.74156 3.52734C6.72876 2.65492 6.74447 1.7819 6.73225 0.909485C6.72876 0.655614 6.81193 0.577079 7.04921 0.577688C11.2173 0.583167 15.3848 0.584384 19.5529 0.578296C19.7995 0.577688 19.867 0.667182 19.864 0.913138C19.853 1.7959 19.8646 2.67866 19.8559 3.56143C19.8536 3.78425 19.8955 3.88836 20.1415 3.88409C21.0231 3.86887 21.9054 3.87131 22.7876 3.88227C23.0313 3.88531 23.1022 3.79399 23.0993 3.54621C23.0877 2.67379 23.1028 1.80077 23.09 0.928358C23.0859 0.666573 23.1575 0.572208 23.418 0.57647C24.2904 0.591081 25.1627 0.595343 26.0351 0.575252C26.3363 0.568556 26.4061 0.672661 26.4061 0.974018C26.3997 8.8988 26.4026 16.823 26.4038 24.7478C26.4038 26.4828 26.3985 28.2179 26.4108 29.953C26.4125 30.2331 26.3375 30.3183 26.0688 30.3134C25.1871 30.297 24.3049 30.3073 23.4227 30.3061C23.3279 30.3061 23.2325 30.2976 23.0941 30.2915ZM19.8617 10.4573C20.958 10.4573 22.0153 10.4573 23.0807 10.4573C23.0807 9.37367 23.0807 8.31496 23.0807 7.26721C23.0435 7.24712 23.0266 7.23068 23.0097 7.23068C22.0228 7.22703 21.0353 7.22155 20.0484 7.23129C19.9856 7.2319 19.871 7.35366 19.8699 7.42063C19.8582 8.4215 19.8617 9.42359 19.8617 10.4573ZM6.73981 10.4805C6.73981 9.42785 6.7433 8.41663 6.73109 7.40541C6.73051 7.34392 6.60605 7.23251 6.53801 7.23129C5.59936 7.21972 4.66071 7.22642 3.72206 7.22033C3.55748 7.21911 3.50048 7.28243 3.50106 7.44985C3.50397 8.39167 3.49757 9.33409 3.50804 10.2759C3.50862 10.3447 3.61738 10.4707 3.6767 10.4719C4.68165 10.4841 5.68601 10.4805 6.73981 10.4805ZM3.50165 13.8368C3.50165 14.8675 3.50339 15.8799 3.50048 16.8918C3.4999 17.0945 3.62552 17.0811 3.75579 17.0811C4.66653 17.0799 5.57726 17.0738 6.488 17.0854C6.70318 17.0878 6.74796 16.9977 6.74505 16.7986C6.73691 16.2209 6.74214 15.6425 6.74272 15.0641C6.74272 14.6605 6.74272 14.2575 6.74272 13.8368C5.64879 13.8368 4.58918 13.8368 3.50165 13.8368ZM19.864 13.8374C19.864 14.8675 19.8611 15.8879 19.8722 16.9082C19.8728 16.9642 19.9873 17.0671 20.0496 17.0677C20.9981 17.0781 21.9466 17.0793 22.8952 17.0677C22.9621 17.0671 23.0854 16.9514 23.0859 16.8881C23.0981 15.8775 23.0947 14.8663 23.0947 13.8374C22.0129 13.8374 20.9533 13.8374 19.864 13.8374ZM3.50281 20.4259C3.50281 21.4852 3.4999 22.4976 3.51153 23.5094C3.51211 23.5606 3.63657 23.6537 3.70403 23.6543C4.64326 23.6647 5.58308 23.661 6.52289 23.6635C6.65723 23.6641 6.74447 23.6361 6.74389 23.4656C6.73981 22.5122 6.74447 21.5595 6.73342 20.6061C6.73284 20.5452 6.62641 20.4338 6.56883 20.4332C5.56214 20.4228 4.55603 20.4259 3.50281 20.4259ZM23.0941 23.6562C23.0941 22.6109 23.097 21.5996 23.0859 20.589C23.0854 20.5348 22.9638 20.4374 22.8981 20.4362C21.9589 20.4265 21.019 20.432 20.0798 20.4271C19.9164 20.4265 19.8606 20.4886 19.8611 20.659C19.867 21.582 19.867 22.5043 19.8623 23.4273C19.8617 23.5935 19.9094 23.6604 20.0775 23.6592C21.0644 23.6525 22.0519 23.6562 23.0941 23.6562Z" fill="#FFFFFF"/>
</svg>
