<svg width="80" height="80" viewBox="0 0 80 80" fill="none" xmlns="http://www.w3.org/2000/svg">
<path d="M19.6213 28.3404C18.9085 28.3404 18.3114 28.1209 17.83 27.682C17.347 27.2415 17.1055 26.6962 17.1055 26.0462C17.1055 25.3962 17.347 24.8509 17.83 24.4104C18.3114 23.9714 18.9085 23.752 19.6213 23.752H44.7791C45.492 23.752 46.0899 23.9714 46.5729 24.4104C47.0543 24.8509 47.2949 25.3962 47.2949 26.0462C47.2949 26.6962 47.0543 27.2415 46.5729 27.682C46.0899 28.1209 45.492 28.3404 44.7791 28.3404H19.6213ZM19.6213 37.5173C18.9085 37.5173 18.3114 37.2971 17.83 36.8566C17.347 36.4176 17.1055 35.8731 17.1055 35.2231C17.1055 34.5731 17.347 34.0278 17.83 33.5873C18.3114 33.1484 18.9085 32.9289 19.6213 32.9289H44.7791C45.492 32.9289 46.0899 33.1484 46.5729 33.5873C47.0543 34.0278 47.2949 34.5731 47.2949 35.2231C47.2949 35.8731 47.0543 36.4176 46.5729 36.8566C46.0899 37.2971 45.492 37.5173 44.7791 37.5173H19.6213ZM19.6213 46.6943C18.9085 46.6943 18.3114 46.474 17.83 46.0335C17.347 45.5946 17.1055 45.0501 17.1055 44.4C17.1055 43.75 17.347 43.2047 17.83 42.7642C18.3114 42.3253 18.9085 42.1058 19.6213 42.1058H34.716C35.4288 42.1058 36.0267 42.3253 36.5097 42.7642C36.9911 43.2047 37.2318 43.75 37.2318 44.4C37.2318 45.0501 36.9911 45.5946 36.5097 46.0335C36.0267 46.474 35.4288 46.6943 34.716 46.6943H19.6213ZM53.7102 55.8138C52.8716 56.3492 52.012 56.3874 51.1315 55.9285C50.251 55.4697 49.8107 54.7814 49.8107 53.8637V44.1133C49.8107 43.1956 50.251 42.5073 51.1315 42.0484C52.012 41.5896 52.8716 41.6278 53.7102 42.1632L61.7607 47.0958C62.5155 47.5546 62.8928 48.1855 62.8928 48.9885C62.8928 49.7915 62.5155 50.4224 61.7607 50.8812L53.7102 55.8138Z" fill="#49454F"/>
</svg>
