<svg width="164" height="157" viewBox="0 0 164 157" fill="none" xmlns="http://www.w3.org/2000/svg">
<path d="M64.166 60.1762V96.8238C64.166 99.4496 65.4143 101.448 67.911 102.817C70.4077 104.188 72.8449 104.073 75.2227 102.475L104.826 84.3225C107.085 82.9525 108.214 81.0117 108.214 78.5C108.214 75.9883 107.085 74.0475 104.826 72.6775L75.2227 54.525C72.8449 52.9267 70.4077 52.8125 67.911 54.1825C65.4143 55.5525 64.166 57.5504 64.166 60.1762ZM81.9994 147C72.1316 147 62.8582 145.201 54.1794 141.602C45.5005 138.008 37.951 133.129 31.531 126.964C25.111 120.799 20.0297 113.549 16.2871 105.215C12.5397 96.8808 10.666 87.9758 10.666 78.5C10.666 69.0242 12.5397 60.1192 16.2871 51.785C20.0297 43.4508 25.111 36.2013 31.531 30.0363C37.951 23.8713 45.5005 18.9895 54.1794 15.3909C62.8582 11.797 72.1316 10 81.9994 10C91.8671 10 101.14 11.797 109.819 15.3909C118.498 18.9895 126.048 23.8713 132.468 30.0363C138.888 36.2013 143.969 43.4508 147.712 51.785C151.459 60.1192 153.333 69.0242 153.333 78.5C153.333 87.9758 151.459 96.8808 147.712 105.215C143.969 113.549 138.888 120.799 132.468 126.964C126.048 133.129 118.498 138.008 109.819 141.602C101.14 145.201 91.8671 147 81.9994 147Z" fill="white" fill-opacity="0.68"/>
</svg>
