<svg width="38" height="38" viewBox="0 0 38 38" fill="none" xmlns="http://www.w3.org/2000/svg">
<path d="M14.4782 14.1617V23.8383C14.4782 24.5317 14.7947 25.0592 15.4278 25.421C16.0609 25.7827 16.6788 25.7526 17.2817 25.3305L24.7879 20.5374C25.3607 20.1757 25.6471 19.6632 25.6471 19C25.6471 18.3368 25.3607 17.8244 24.7879 17.4626L17.2817 12.6695C16.6788 12.2475 16.0609 12.2173 15.4278 12.5791C14.7947 12.9408 14.4782 13.4684 14.4782 14.1617ZM19 37.0872C16.498 37.0872 14.1466 36.6121 11.946 35.6619C9.74541 34.713 7.83119 33.4245 6.20334 31.7967C4.5755 30.1689 3.28709 28.2546 2.33811 26.054C1.38793 23.8534 0.912842 21.5021 0.912842 19C0.912842 16.498 1.38793 14.1466 2.33811 11.946C3.28709 9.74541 4.5755 7.83119 6.20334 6.20334C7.83119 4.5755 9.74541 3.28648 11.946 2.3363C14.1466 1.38733 16.498 0.912842 19 0.912842C21.5021 0.912842 23.8534 1.38733 26.054 2.3363C28.2546 3.28648 30.1689 4.5755 31.7967 6.20334C33.4245 7.83119 34.713 9.74541 35.6619 11.946C36.6121 14.1466 37.0872 16.498 37.0872 19C37.0872 21.5021 36.6121 23.8534 35.6619 26.054C34.713 28.2546 33.4245 30.1689 31.7967 31.7967C30.1689 33.4245 28.2546 34.713 26.054 35.6619C23.8534 36.6121 21.5021 37.0872 19 37.0872Z" fill="white" fill-opacity="0.68"/>
</svg>
