<svg width="105" height="105" viewBox="0 0 105 105" fill="none" xmlns="http://www.w3.org/2000/svg">
<path fill-rule="evenodd" clip-rule="evenodd" d="M96.25 52.5C96.25 76.6631 76.6631 96.25 52.5 96.25C28.3369 96.25 8.75 76.6631 8.75 52.5C8.75 28.3369 28.3369 8.75 52.5 8.75C76.6631 8.75 96.25 28.3369 96.25 52.5ZM43.7675 22.9731C44.637 22.9812 45.4677 23.3341 46.0772 23.9542C46.6867 24.5744 47.0251 25.4111 47.0181 26.2806C46.9875 30.0037 46.8737 33.18 46.3575 35.8181C45.8237 38.5438 44.8175 40.9194 42.8663 42.8706C40.915 44.8219 38.535 45.8281 35.8094 46.3619C33.1756 46.8781 29.9994 46.9919 26.2763 47.0225C25.8454 47.0259 25.418 46.9445 25.0186 46.7828C24.6192 46.6211 24.2555 46.3823 23.9484 46.08C23.6412 45.7778 23.3966 45.418 23.2286 45.0212C23.0605 44.6244 22.9722 44.1984 22.9688 43.7675C22.9653 43.3366 23.0468 42.9092 23.2085 42.5098C23.3702 42.1104 23.609 41.7467 23.9112 41.4396C24.2135 41.1325 24.5733 40.8879 24.9701 40.7198C25.3668 40.5517 25.7929 40.4634 26.2237 40.46C29.9688 40.4294 32.5806 40.3069 34.5494 39.9219C36.4262 39.5544 37.4631 38.9944 38.2244 38.2288C38.99 37.4675 39.55 36.4306 39.9175 34.5537C40.3025 32.585 40.425 29.9688 40.4556 26.2281C40.4591 25.7969 40.5475 25.3705 40.7158 24.9734C40.8842 24.5763 41.1292 24.2163 41.4368 23.914C41.7444 23.6117 42.1085 23.373 42.5085 23.2116C42.9084 23.0501 43.3362 22.9691 43.7675 22.9731ZM61.2238 22.9731C61.6547 22.9697 62.082 23.0511 62.4814 23.2128C62.8809 23.3745 63.2445 23.6133 63.5517 23.9156C63.8588 24.2178 64.1034 24.5776 64.2715 24.9744C64.4395 25.3712 64.5278 25.7972 64.5312 26.2281C64.5619 29.9688 64.6844 32.585 65.0694 34.5537C65.4369 36.4306 66.0013 37.4675 66.7625 38.2288C67.5238 38.9944 68.5606 39.5544 70.4375 39.9219C72.4062 40.3069 75.0225 40.4294 78.7675 40.46C79.6377 40.4675 80.4693 40.8205 81.0794 41.4412C81.6894 42.0619 82.0279 42.8994 82.0203 43.7697C82.0128 44.6399 81.6598 45.4715 81.0391 46.0816C80.4185 46.6916 79.5809 47.03 78.7106 47.0225C74.9919 46.9919 71.8112 46.8781 69.1731 46.3619C66.4475 45.8281 64.0719 44.8219 62.1206 42.8706C60.1694 40.9194 59.1675 38.5394 58.6294 35.8137C58.1131 33.18 57.9994 30.0037 57.9688 26.2806C57.9618 25.4111 58.3002 24.5744 58.9097 23.9542C59.5192 23.3341 60.3499 22.9812 61.2194 22.9731H61.2238ZM26.2763 57.9731C25.406 57.9662 24.5686 58.3052 23.9484 58.9156C23.3281 59.526 22.9757 60.3579 22.9688 61.2281C22.9618 62.0984 23.3008 62.9357 23.9112 63.556C24.5217 64.1763 25.3535 64.5287 26.2237 64.5356C29.9688 64.5663 32.5806 64.6887 34.5494 65.0737C36.4262 65.4412 37.4631 66.0013 38.2244 66.7625C38.99 67.5281 39.55 68.565 39.9175 70.4375C40.3025 72.4062 40.425 75.0225 40.4556 78.7675C40.4594 79.1984 40.5479 79.6243 40.7163 80.021C40.8846 80.4177 41.1295 80.7773 41.4368 81.0794C41.7441 81.3814 42.1079 81.62 42.5075 81.7814C42.907 81.9429 43.3344 82.024 43.7653 82.0203C44.1962 82.0166 44.6222 81.928 45.0188 81.7597C45.4155 81.5913 45.7751 81.3465 46.0772 81.0391C46.3792 80.7318 46.6178 80.368 46.7792 79.9685C46.9407 79.5689 47.0219 79.1415 47.0181 78.7106C46.9875 74.9919 46.8737 71.8156 46.3575 69.1775C45.8237 66.4519 44.8175 64.0762 42.8663 62.125C40.915 60.1737 38.535 59.1675 35.8094 58.6338C33.1756 58.1175 29.9994 58.0037 26.2763 57.9688V57.9731ZM82.0181 61.2238C82.0251 62.0933 81.6867 62.93 81.0772 63.5501C80.4677 64.1703 79.637 64.5232 78.7675 64.5312C75.0225 64.5662 72.4062 64.6887 70.4375 65.0737C68.5606 65.4412 67.5238 66.0013 66.7625 66.7625C65.9969 67.5281 65.4369 68.565 65.0694 70.4375C64.6844 72.4062 64.5619 75.0225 64.5312 78.7675C64.5275 79.1984 64.4389 79.6243 64.2706 80.021C64.1022 80.4177 63.8574 80.7773 63.5501 81.0794C63.2428 81.3814 62.8789 81.62 62.4794 81.7814C62.0799 81.9429 61.6525 82.024 61.2216 82.0203C60.7907 82.0166 60.3647 81.928 59.968 81.7597C59.5714 81.5913 59.2118 81.3465 58.9097 81.0391C58.6076 80.7318 58.3691 80.368 58.2076 79.9685C58.0462 79.5689 57.965 79.1415 57.9688 78.7106C57.9994 74.9919 58.1131 71.8156 58.6294 69.1775C59.1675 66.4519 60.1694 64.0762 62.1206 62.125C64.0719 60.1737 66.4519 59.1675 69.1775 58.6338C71.8113 58.1175 74.9875 58.0037 78.7106 57.9688C79.1415 57.9653 79.5689 58.0467 79.9683 58.2084C80.3677 58.3702 80.7314 58.609 81.0385 58.9112C81.3457 59.2135 81.5903 59.5733 81.7583 59.9701C81.9264 60.3668 82.0147 60.7928 82.0181 61.2238Z" fill="white"/>
</svg>
