<svg width="105" height="105" viewBox="0 0 105 105" fill="none" xmlns="http://www.w3.org/2000/svg">
<path d="M52.5 9.84375C28.9427 9.84375 9.84375 28.9427 9.84375 52.5C9.84375 76.0573 28.9427 95.1562 52.5 95.1562C76.0573 95.1562 95.1562 76.0573 95.1562 52.5C95.1562 28.9427 76.0573 9.84375 52.5 9.84375ZM69.663 67.8091C66.7122 71.1019 62.8755 73.4753 58.6116 74.6452C54.3477 75.8152 49.837 75.7324 45.6189 74.4066C41.4008 73.0808 37.6539 70.5682 34.826 67.1692C31.9981 63.7703 30.2091 59.6287 29.6728 55.2398C28.9942 55.6888 28.1731 55.8697 27.3687 55.7474C26.5644 55.6251 25.8341 55.2083 25.3198 54.5779C24.8054 53.9475 24.5435 53.1485 24.5851 52.3359C24.6266 51.5234 24.9686 50.7552 25.5445 50.1806L30.3844 45.3407C30.9907 44.7345 31.8103 44.3896 32.6677 44.3801C33.5251 44.3705 34.3522 44.6969 34.972 45.2895L40.0312 50.1293C40.5993 50.6684 40.9559 51.393 41.0364 52.172C41.1169 52.951 40.9161 53.7332 40.4703 54.3771C40.0246 55.021 39.3631 55.4843 38.6056 55.6831C37.8481 55.882 37.0444 55.8033 36.3398 55.4613C36.9019 58.4854 38.3001 61.2914 40.3759 63.5612C42.4517 65.8309 45.1221 67.4735 48.0841 68.3026C51.0461 69.1317 54.1811 69.1141 57.1337 68.2519C60.0862 67.3897 62.738 65.7173 64.7883 63.4245C65.3767 62.8022 66.1852 62.4346 67.041 62.4002C67.8968 62.3659 68.7321 62.6676 69.3685 63.2408C70.0049 63.814 70.392 64.6133 70.447 65.4681C70.502 66.3228 70.2206 67.1651 69.663 67.8152V67.8091ZM79.4575 54.8194L74.6177 59.6593C74.0113 60.2655 73.1917 60.6104 72.3343 60.6199C71.4769 60.6295 70.6498 60.3031 70.0301 59.7105L64.9708 54.8707C64.4136 54.3344 64.0638 53.6185 63.983 52.8494C63.9022 52.0802 64.0957 51.3073 64.5293 50.6669C64.9629 50.0265 65.6088 49.5599 66.353 49.3493C67.0971 49.1388 67.8917 49.1979 68.5966 49.5161C68.0331 46.4988 66.6362 43.6995 64.564 41.435C62.4917 39.1706 59.827 37.5315 56.8714 36.7032C53.9158 35.8749 50.7873 35.8906 47.8401 36.7484C44.8929 37.6062 42.2447 39.272 40.1953 41.557C39.9076 41.8778 39.5594 42.1387 39.1708 42.3249C38.7822 42.5111 38.3608 42.619 37.9305 42.6423C37.5002 42.6656 37.0695 42.604 36.6631 42.4609C36.2566 42.3178 35.8823 42.096 35.5616 41.8083C35.2408 41.5205 34.9799 41.1724 34.7937 40.7838C34.6075 40.3952 34.4996 39.9737 34.4763 39.5434C34.453 39.1131 34.5146 38.6825 34.6577 38.276C34.8008 37.8696 35.0226 37.4953 35.3104 37.1745C38.2634 33.8819 42.1031 31.5105 46.3695 30.3442C50.6358 29.178 55.1479 29.2664 59.3653 30.5988C63.5827 31.9312 67.3266 34.4512 70.1485 37.8569C72.9703 41.2626 74.7506 45.4096 75.276 49.8012C75.9499 49.3417 76.7707 49.1497 77.5785 49.2626C78.3863 49.3755 79.1231 49.7852 79.6452 50.4118C80.1673 51.0384 80.4373 51.837 80.4026 52.6518C80.368 53.4667 80.031 54.2395 79.4575 54.8194Z" fill="white"/>
<circle cx="85.1352" cy="23.1352" r="14.5962" fill="white"/>
<path d="M84.5 6C75.425 6 68 13.425 68 22.5C68 31.575 75.425 39 84.5 39C93.575 39 101 31.575 101 22.5C101 13.425 93.575 6 84.5 6ZM81.2 30.75L72.95 22.5L75.2765 20.1735L81.2 26.0805L93.7235 13.557L96.05 15.9L81.2 30.75Z" fill="#00C853"/>
</svg>
