<svg width="25" height="26" viewBox="0 0 25 26" fill="none" xmlns="http://www.w3.org/2000/svg">
<path d="M13.5424 2.50525C18.4694 2.99483 22.3965 6.90108 22.8653 11.849C23.0026 13.2091 22.8701 14.5828 22.4756 15.8916C22.0811 17.2004 21.4323 18.4185 20.5662 19.4762C19.7002 20.5338 18.634 21.4102 17.4287 22.0551C16.2234 22.7 14.9028 23.1007 13.5424 23.2344V21.1511C17.334 20.7032 20.3132 17.6928 20.7924 13.9011C20.9273 12.8148 20.8467 11.7126 20.5553 10.6575C20.2638 9.60236 19.7672 8.61507 19.0939 7.75206C18.4205 6.88906 17.5836 6.16729 16.631 5.62805C15.6784 5.0888 14.6288 4.74265 13.5424 4.60942V2.50525ZM11.459 2.5365V4.61983C9.96944 4.82817 8.56319 5.43233 7.39653 6.36983L5.90694 4.82817C7.48685 3.52628 9.42081 2.72802 11.459 2.5365ZM4.43819 6.29692L5.92778 7.7865C5.00484 8.96327 4.41485 10.3663 4.21944 11.849H2.13611C2.34444 9.80733 3.12569 7.88025 4.43819 6.29692ZM2.14653 13.9323H4.22986C4.41736 15.4115 5.01111 16.8177 5.92778 17.9948L4.44861 19.4844C3.15452 17.8988 2.3541 15.9684 2.14653 13.9323ZM7.39653 19.5261C8.57361 20.4428 9.97986 21.0365 11.459 21.224V23.3073C9.41736 23.0886 7.47986 22.2657 5.90694 20.9532L7.39653 19.5261ZM12.5007 8.20317L7.81319 12.8907H11.459V17.0573H13.5424V12.8907H17.1882L12.5007 8.20317Z" fill="white"/>
</svg>
