<svg width="77" height="68" viewBox="0 0 77 68" fill="none" xmlns="http://www.w3.org/2000/svg">
<path d="M52.8306 67.1962C51.4046 67.7279 50.0857 67.5617 48.8736 66.6978C47.6616 65.8338 47.0556 64.6375 47.0556 63.109C47.0556 62.3779 47.288 61.7306 47.7528 61.167C48.2177 60.6035 48.8052 60.1874 49.5153 59.919C55.219 57.7923 59.8005 54.4029 63.2598 49.7507C66.7191 45.0986 68.4473 39.8484 68.4444 34C68.4444 28.1516 66.7148 22.9014 63.2555 18.2493C59.7962 13.5971 55.2161 10.2077 49.5153 8.08105C48.731 7.81522 48.125 7.38324 47.6972 6.78511C47.2694 6.18698 47.0556 5.52239 47.0556 4.79134C47.0556 3.32925 47.6616 2.16622 48.8736 1.30225C50.0857 0.438288 51.4046 0.272141 52.8306 0.803812C60.1028 3.52862 65.9491 7.88168 70.3694 13.863C74.7898 19.8443 77 26.5566 77 34C77 41.4434 74.7898 48.1557 70.3694 54.137C65.9491 60.1183 60.1028 64.4714 52.8306 67.1962ZM4.27779 46.0623C3.06575 46.0623 2.04907 45.6795 1.22774 44.9139C0.406403 44.1483 -0.00283705 43.2019 1.4802e-05 42.0748V26.1246C1.4802e-05 24.9948 0.410682 24.0471 1.23201 23.2815C2.05335 22.5159 3.06861 22.1344 4.27779 22.1371H17.1111L31.2278 8.97825C32.5824 7.71553 34.1338 7.43242 35.882 8.1289C37.6302 8.82539 38.5029 10.0722 38.5 11.8692V56.3302C38.5 58.1246 37.6259 59.3713 35.8777 60.0705C34.1295 60.7696 32.5796 60.4865 31.2278 59.2211L17.1111 46.0623H4.27779ZM47.0556 50.0498V17.9502C50.2639 19.3458 52.8491 21.5057 54.8112 24.4299C56.7732 27.3541 57.7529 30.5774 57.75 34.0997C57.75 37.622 56.769 40.812 54.8069 43.6698C52.8448 46.5275 50.261 48.6542 47.0556 50.0498Z" fill="white"/>
</svg>
