<svg width="40" height="40" viewBox="0 0 40 40" fill="none" xmlns="http://www.w3.org/2000/svg">
<path d="M0.5 20C0.5 30.7691 9.23094 39.5 20 39.5C30.7691 39.5 39.5 30.7691 39.5 20C39.5 9.23094 30.7691 0.5 20 0.5C9.23094 0.5 0.5 9.23094 0.5 20ZM20.4359 11.435C20.5758 11.5737 20.687 11.7387 20.7631 11.9204C20.8393 12.1021 20.8788 12.297 20.8796 12.494C20.8804 12.691 20.8424 12.8863 20.7677 13.0686C20.693 13.2509 20.5831 13.4167 20.4444 13.5566L15.5394 18.5H28.0625C28.4603 18.5 28.8419 18.658 29.1232 18.9393C29.4045 19.2206 29.5625 19.6022 29.5625 20C29.5625 20.3978 29.4045 20.7794 29.1232 21.0607C28.8419 21.342 28.4603 21.5 28.0625 21.5H15.5394L20.4444 26.4434C20.5831 26.5834 20.6929 26.7494 20.7676 26.9318C20.8422 27.1142 20.8801 27.3095 20.8793 27.5066C20.8784 27.7037 20.8387 27.8987 20.7625 28.0805C20.6863 28.2622 20.575 28.4272 20.435 28.5659C20.295 28.7047 20.1291 28.8145 19.9467 28.8891C19.7642 28.9637 19.5689 29.0017 19.3718 29.0008C19.1747 29 18.9797 28.9603 18.798 28.8841C18.6162 28.8078 18.4513 28.6965 18.3125 28.5566L10.8697 21.0566C10.5909 20.7756 10.4344 20.3958 10.4344 20C10.4344 19.6042 10.5909 19.2244 10.8697 18.9434L18.3125 11.4434C18.4513 11.3033 18.6163 11.1919 18.7982 11.1156C18.9801 11.0393 19.1752 10.9996 19.3725 10.9988C19.5697 10.998 19.7652 11.0362 19.9476 11.111C20.1301 11.1858 20.2961 11.2959 20.4359 11.435Z" fill="white"/>
</svg>
