<svg width="513" height="169" viewBox="0 0 513 169" fill="none" xmlns="http://www.w3.org/2000/svg">
<path d="M443.217 46.9995C443.217 44.1182 440.882 41.7824 438 41.7824C435.119 41.7824 432.783 44.1182 432.783 46.9995C432.783 49.8808 435.119 52.2166 438 52.2166C440.882 52.2166 443.217 49.8808 443.217 46.9995ZM262.217 46.9995C262.217 44.1182 259.882 41.7824 257 41.7824C254.119 41.7824 251.783 44.1182 251.783 46.9995C251.783 49.8808 254.119 52.2166 257 52.2166C259.882 52.2166 262.217 49.8808 262.217 46.9995ZM434.984 46.0213C434.443 46.0213 434.005 46.4593 434.005 46.9995C434.005 47.5398 434.443 47.9777 434.984 47.9777V46.0213ZM428.95 47.9777C429.491 47.9777 429.929 47.5398 429.929 46.9995C429.929 46.4593 429.491 46.0213 428.95 46.0213V47.9777ZM422.917 46.0213C422.377 46.0213 421.939 46.4593 421.939 46.9995C421.939 47.5398 422.377 47.9777 422.917 47.9777V46.0213ZM416.884 47.9777C417.424 47.9777 417.862 47.5398 417.862 46.9995C417.862 46.4593 417.424 46.0213 416.884 46.0213V47.9777ZM410.85 46.0213C410.31 46.0213 409.872 46.4593 409.872 46.9995C409.872 47.5398 410.31 47.9777 410.85 47.9777V46.0213ZM404.817 47.9777C405.357 47.9777 405.795 47.5398 405.795 46.9995C405.795 46.4593 405.357 46.0213 404.817 46.0213V47.9777ZM398.784 46.0213C398.243 46.0213 397.805 46.4593 397.805 46.9995C397.805 47.5398 398.243 47.9777 398.784 47.9777V46.0213ZM392.75 47.9777C393.291 47.9777 393.729 47.5398 393.729 46.9995C393.729 46.4593 393.291 46.0213 392.75 46.0213V47.9777ZM386.717 46.0213C386.177 46.0213 385.739 46.4593 385.739 46.9995C385.739 47.5398 386.177 47.9777 386.717 47.9777V46.0213ZM380.684 47.9777C381.224 47.9777 381.662 47.5398 381.662 46.9995C381.662 46.4593 381.224 46.0213 380.684 46.0213V47.9777ZM374.65 46.0213C374.11 46.0213 373.672 46.4593 373.672 46.9995C373.672 47.5398 374.11 47.9777 374.65 47.9777V46.0213ZM368.617 47.9777C369.157 47.9777 369.595 47.5398 369.595 46.9995C369.595 46.4593 369.157 46.0213 368.617 46.0213V47.9777ZM362.584 46.0213C362.043 46.0213 361.605 46.4593 361.605 46.9995C361.605 47.5398 362.043 47.9777 362.584 47.9777V46.0213ZM356.55 47.9777C357.091 47.9777 357.529 47.5398 357.529 46.9995C357.529 46.4593 357.091 46.0213 356.55 46.0213V47.9777ZM350.517 46.0213C349.977 46.0213 349.539 46.4593 349.539 46.9995C349.539 47.5398 349.977 47.9777 350.517 47.9777V46.0213ZM344.484 47.9777C345.024 47.9777 345.462 47.5398 345.462 46.9995C345.462 46.4593 345.024 46.0213 344.484 46.0213V47.9777ZM338.45 46.0213C337.91 46.0213 337.472 46.4593 337.472 46.9995C337.472 47.5398 337.91 47.9777 338.45 47.9777V46.0213ZM332.417 47.9777C332.957 47.9777 333.395 47.5398 333.395 46.9995C333.395 46.4593 332.957 46.0213 332.417 46.0213V47.9777ZM326.384 46.0213C325.843 46.0213 325.406 46.4593 325.406 46.9995C325.406 47.5398 325.843 47.9777 326.384 47.9777V46.0213ZM320.35 47.9777C320.891 47.9777 321.329 47.5398 321.329 46.9995C321.329 46.4593 320.891 46.0213 320.35 46.0213V47.9777ZM314.317 46.0213C313.777 46.0213 313.339 46.4593 313.339 46.9995C313.339 47.5398 313.777 47.9777 314.317 47.9777V46.0213ZM308.284 47.9777C308.824 47.9777 309.262 47.5398 309.262 46.9995C309.262 46.4593 308.824 46.0213 308.284 46.0213V47.9777ZM302.25 46.0213C301.71 46.0213 301.272 46.4593 301.272 46.9995C301.272 47.5398 301.71 47.9777 302.25 47.9777V46.0213ZM296.217 47.9777C296.757 47.9777 297.195 47.5398 297.195 46.9995C297.195 46.4593 296.757 46.0213 296.217 46.0213V47.9777ZM290.184 46.0213C289.643 46.0213 289.205 46.4593 289.205 46.9995C289.205 47.5398 289.643 47.9777 290.184 47.9777V46.0213ZM284.15 47.9777C284.691 47.9777 285.129 47.5398 285.129 46.9995C285.129 46.4593 284.691 46.0213 284.15 46.0213V47.9777ZM278.117 46.0213C277.577 46.0213 277.139 46.4593 277.139 46.9995C277.139 47.5398 277.577 47.9777 278.117 47.9777V46.0213ZM272.084 47.9777C272.624 47.9777 273.062 47.5398 273.062 46.9995C273.062 46.4593 272.624 46.0213 272.084 46.0213V47.9777ZM266.05 46.0213C265.51 46.0213 265.072 46.4593 265.072 46.9995C265.072 47.5398 265.51 47.9777 266.05 47.9777V46.0213ZM260.017 47.9777C260.557 47.9777 260.995 47.5398 260.995 46.9995C260.995 46.4593 260.557 46.0213 260.017 46.0213V47.9777ZM438 46.0213H434.984V47.9777H438V46.0213ZM428.95 46.0213H422.917V47.9777H428.95V46.0213ZM416.884 46.0213H410.85V47.9777H416.884V46.0213ZM404.817 46.0213H398.784V47.9777H404.817V46.0213ZM392.75 46.0213H386.717V47.9777H392.75V46.0213ZM380.684 46.0213H374.65V47.9777H380.684V46.0213ZM368.617 46.0213H362.584V47.9777H368.617V46.0213ZM356.55 46.0213L350.517 46.0213V47.9777L356.55 47.9777V46.0213ZM344.484 46.0213H338.45V47.9777H344.484V46.0213ZM332.417 46.0213H326.384V47.9777H332.417V46.0213ZM320.35 46.0213H314.317V47.9777H320.35V46.0213ZM308.284 46.0213H302.25V47.9777H308.284V46.0213ZM296.217 46.0213L290.184 46.0213V47.9777L296.217 47.9777V46.0213ZM284.15 46.0213H278.117V47.9777H284.15V46.0213ZM272.084 46.0213H266.05V47.9777H272.084V46.0213ZM260.017 46.0213H257V47.9777H260.017V46.0213Z" fill="url(#paint0_linear_697_740)"/>
<path d="M71.9642 24.8208V9.52411H70.1301V8.43586L74.2263 7.2131V24.8208H71.9642Z" fill="url(#paint1_linear_697_740)"/>
<path d="M251.596 24.8208V22.9867C258.077 18.5277 261.317 14.9817 261.317 12.3487C261.317 10.1477 259.931 9.04724 257.159 9.04724C255.366 9.04724 253.675 9.49558 252.085 10.3923V8.43586C253.675 7.62069 255.366 7.2131 257.159 7.2131C261.439 7.2131 263.579 8.92496 263.579 12.3487C263.579 15.3648 260.665 18.9108 254.836 22.9867H263.579V24.8208H251.596Z" fill="url(#paint2_linear_697_740)"/>
<path d="M431.659 7.94676C433.289 7.45765 434.92 7.2131 436.55 7.2131C440.748 7.2131 442.847 8.80269 442.847 11.9819C442.847 13.9057 442.081 15.2303 440.549 15.9558C442.081 16.6487 442.847 17.9734 442.847 19.9298C442.847 23.272 440.748 24.9431 436.55 24.9431C434.92 24.9431 433.289 24.6985 431.659 24.2094V22.253C433.289 22.8236 434.92 23.1089 436.55 23.1089C439.24 23.1089 440.585 22.0492 440.585 19.9298C440.585 17.8918 439.558 16.8729 437.504 16.8729H433.493V15.0387H437.467C439.546 15.0387 440.585 14.0198 440.585 11.9819C440.585 10.0254 439.24 9.04724 436.55 9.04724C434.92 9.04724 433.289 9.33255 431.659 9.90317V7.94676Z" fill="url(#paint3_linear_697_740)"/>
<path d="M68.7833 46.9995C68.7833 49.8808 71.119 52.2166 74.0004 52.2166C76.8817 52.2166 79.2175 49.8808 79.2175 46.9995C79.2175 44.1182 76.8817 41.7824 74.0004 41.7824C71.119 41.7824 68.7833 44.1182 68.7833 46.9995ZM251.783 46.9995C251.783 49.8808 254.119 52.2166 257 52.2166C259.882 52.2166 262.217 49.8809 262.217 46.9995C262.217 44.1182 259.882 41.7824 257 41.7824C254.119 41.7824 251.783 44.1182 251.783 46.9995ZM76.8597 47.9777C77.4 47.9777 77.8379 47.5398 77.8379 46.9995C77.8379 46.4593 77.4 46.0213 76.8597 46.0213L76.8597 47.9777ZM82.5785 46.0213C82.0382 46.0213 81.6003 46.4593 81.6003 46.9995C81.6003 47.5398 82.0382 47.9777 82.5785 47.9777L82.5785 46.0213ZM88.2972 47.9777C88.8375 47.9777 89.2754 47.5398 89.2754 46.9995C89.2754 46.4593 88.8375 46.0213 88.2972 46.0213L88.2972 47.9777ZM94.016 46.0213C93.4757 46.0213 93.0378 46.4593 93.0378 46.9995C93.0378 47.5398 93.4757 47.9777 94.016 47.9777L94.016 46.0213ZM99.7347 47.9777C100.275 47.9777 100.713 47.5398 100.713 46.9995C100.713 46.4593 100.275 46.0213 99.7347 46.0213L99.7347 47.9777ZM105.453 46.0213C104.913 46.0213 104.475 46.4593 104.475 46.9995C104.475 47.5398 104.913 47.9777 105.453 47.9777L105.453 46.0213ZM111.172 47.9777C111.712 47.9777 112.15 47.5398 112.15 46.9995C112.15 46.4593 111.712 46.0213 111.172 46.0213L111.172 47.9777ZM116.891 46.0213C116.351 46.0213 115.913 46.4593 115.913 46.9995C115.913 47.5398 116.351 47.9777 116.891 47.9777L116.891 46.0213ZM122.61 47.9777C123.15 47.9777 123.588 47.5398 123.588 46.9995C123.588 46.4593 123.15 46.0213 122.61 46.0213L122.61 47.9777ZM128.328 46.0213C127.788 46.0213 127.35 46.4593 127.35 46.9995C127.35 47.5398 127.788 47.9777 128.328 47.9777L128.328 46.0213ZM134.047 47.9777C134.587 47.9777 135.025 47.5398 135.025 46.9995C135.025 46.4593 134.587 46.0213 134.047 46.0213L134.047 47.9777ZM139.766 46.0213C139.226 46.0213 138.788 46.4593 138.788 46.9995C138.788 47.5398 139.226 47.9777 139.766 47.9777L139.766 46.0213ZM145.485 47.9777C146.025 47.9777 146.463 47.5398 146.463 46.9995C146.463 46.4593 146.025 46.0213 145.485 46.0213L145.485 47.9777ZM151.203 46.0213C150.663 46.0213 150.225 46.4593 150.225 46.9995C150.225 47.5398 150.663 47.9777 151.203 47.9777L151.203 46.0213ZM156.922 47.9777C157.462 47.9777 157.9 47.5398 157.9 46.9995C157.9 46.4593 157.462 46.0213 156.922 46.0213L156.922 47.9777ZM162.641 46.0213C162.101 46.0213 161.663 46.4593 161.663 46.9995C161.663 47.5398 162.101 47.9777 162.641 47.9777L162.641 46.0213ZM168.36 47.9777C168.9 47.9777 169.338 47.5398 169.338 46.9995C169.338 46.4593 168.9 46.0213 168.36 46.0213L168.36 47.9777ZM174.078 46.0213C173.538 46.0213 173.1 46.4593 173.1 46.9995C173.1 47.5398 173.538 47.9777 174.078 47.9777L174.078 46.0213ZM179.797 47.9777C180.337 47.9777 180.775 47.5398 180.775 46.9995C180.775 46.4593 180.337 46.0213 179.797 46.0213L179.797 47.9777ZM185.516 46.0213C184.976 46.0213 184.538 46.4593 184.538 46.9995C184.538 47.5398 184.976 47.9777 185.516 47.9777L185.516 46.0213ZM191.235 47.9777C191.775 47.9777 192.213 47.5398 192.213 46.9995C192.213 46.4593 191.775 46.0213 191.235 46.0213L191.235 47.9777ZM196.953 46.0213C196.413 46.0213 195.975 46.4593 195.975 46.9995C195.975 47.5398 196.413 47.9777 196.953 47.9777L196.953 46.0213ZM202.672 47.9777C203.212 47.9777 203.65 47.5398 203.65 46.9995C203.65 46.4593 203.212 46.0213 202.672 46.0213L202.672 47.9777ZM208.391 46.0213C207.851 46.0213 207.413 46.4593 207.413 46.9995C207.413 47.5398 207.851 47.9777 208.391 47.9777L208.391 46.0213ZM214.11 47.9777C214.65 47.9777 215.088 47.5398 215.088 46.9995C215.088 46.4593 214.65 46.0213 214.11 46.0213L214.11 47.9777ZM219.828 46.0213C219.288 46.0213 218.85 46.4593 218.85 46.9995C218.85 47.5398 219.288 47.9777 219.828 47.9777L219.828 46.0213ZM225.547 47.9777C226.087 47.9777 226.525 47.5398 226.525 46.9995C226.525 46.4593 226.087 46.0213 225.547 46.0213L225.547 47.9777ZM231.266 46.0213C230.726 46.0213 230.288 46.4593 230.288 46.9995C230.288 47.5398 230.726 47.9777 231.266 47.9777L231.266 46.0213ZM236.985 47.9777C237.525 47.9777 237.963 47.5398 237.963 46.9995C237.963 46.4593 237.525 46.0213 236.985 46.0213L236.985 47.9777ZM242.703 46.0213C242.163 46.0213 241.725 46.4593 241.725 46.9995C241.725 47.5398 242.163 47.9777 242.703 47.9777L242.703 46.0213ZM248.422 47.9777C248.962 47.9777 249.4 47.5398 249.4 46.9995C249.4 46.4593 248.962 46.0213 248.422 46.0213L248.422 47.9777ZM254.141 46.0213C253.601 46.0213 253.163 46.4593 253.163 46.9995C253.163 47.5398 253.601 47.9777 254.141 47.9777L254.141 46.0213ZM74.0004 47.9777L76.8597 47.9777L76.8597 46.0213L74.0004 46.0213L74.0004 47.9777ZM82.5785 47.9777L88.2972 47.9777L88.2972 46.0213L82.5785 46.0213L82.5785 47.9777ZM94.016 47.9777L99.7347 47.9777L99.7347 46.0213L94.016 46.0213L94.016 47.9777ZM105.453 47.9777L111.172 47.9777L111.172 46.0213L105.453 46.0213L105.453 47.9777ZM116.891 47.9777L122.61 47.9777L122.61 46.0213L116.891 46.0213L116.891 47.9777ZM128.328 47.9777L134.047 47.9777L134.047 46.0213L128.328 46.0213L128.328 47.9777ZM139.766 47.9777L145.485 47.9777L145.485 46.0213L139.766 46.0213L139.766 47.9777ZM151.203 47.9777L156.922 47.9777L156.922 46.0213L151.203 46.0213L151.203 47.9777ZM162.641 47.9777L168.36 47.9777L168.36 46.0213L162.641 46.0213L162.641 47.9777ZM174.078 47.9777L179.797 47.9777L179.797 46.0213L174.078 46.0213L174.078 47.9777ZM185.516 47.9777L191.235 47.9777L191.235 46.0213L185.516 46.0213L185.516 47.9777ZM196.953 47.9777L202.672 47.9777L202.672 46.0213L196.953 46.0213L196.953 47.9777ZM208.391 47.9777L214.11 47.9777L214.11 46.0213L208.391 46.0213L208.391 47.9777ZM219.828 47.9777L225.547 47.9777L225.547 46.0213L219.828 46.0213L219.828 47.9777ZM231.266 47.9777L236.985 47.9777L236.985 46.0213L231.266 46.0213L231.266 47.9777ZM242.703 47.9777L248.422 47.9777L248.422 46.0213L242.703 46.0213L242.703 47.9777ZM254.141 47.9777L257 47.9777L257 46.0213L254.141 46.0213L254.141 47.9777Z" fill="url(#paint4_linear_697_740)"/>
<path d="M76.1027 82.1821C85.5862 83.1235 93.145 90.6348 94.0472 100.149C94.3114 102.764 94.0566 105.406 93.2972 107.923C92.5379 110.439 91.289 112.782 89.6221 114.815C87.9551 116.849 85.903 118.534 83.5831 119.774C81.2632 121.014 78.7212 121.785 76.1027 122.042V118.036C83.4008 117.175 89.135 111.386 90.0573 104.095C90.317 102.006 90.162 99.8868 89.601 97.8579C89.04 95.8291 88.0842 93.9306 86.7881 92.2711C85.492 90.6117 83.8811 89.2238 82.0476 88.1869C80.2141 87.15 78.194 86.4844 76.1027 86.2282V82.1821ZM72.0928 82.2422V86.2482C69.2257 86.6488 66.519 87.8106 64.2734 89.6133L61.4063 86.6488C64.4473 84.1455 68.1697 82.6105 72.0928 82.2422ZM58.5793 89.4731L61.4464 92.3374C59.67 94.6002 58.5344 97.298 58.1583 100.149H54.1483C54.5493 96.2232 56.053 92.5176 58.5793 89.4731ZM54.1684 104.155H58.1783C58.5392 106.999 59.682 109.703 61.4464 111.967L58.5993 114.831C56.1085 111.782 54.5679 108.07 54.1684 104.155ZM64.2734 114.911C66.539 116.674 69.2457 117.816 72.0928 118.176V122.182C68.163 121.761 64.4338 120.179 61.4063 117.655L64.2734 114.911ZM74.0978 93.1386L65.0754 102.152H72.0928V110.164H76.1027V102.152H83.1201L74.0978 93.1386Z" fill="white"/>
<path d="M10.3573 147.707V142.621H11.9101V147.707C11.9101 149.042 12.5937 149.71 13.9608 149.71C15.328 149.71 16.0116 149.042 16.0116 147.707V142.621H17.5644V147.707C17.5644 149.941 16.3632 151.058 13.9608 151.058C11.5585 151.058 10.3573 149.941 10.3573 147.707ZM20.7284 149.394C21.1151 149.605 21.5312 149.71 21.9765 149.71C22.9022 149.71 23.3651 149.06 23.3651 147.759C23.3651 146.654 22.8534 146.101 21.83 146.101C21.3886 146.101 21.0214 146.128 20.7284 146.183V149.394ZM19.1757 145.099C19.9921 144.931 20.8554 144.847 21.7655 144.847C23.8554 144.847 24.9003 145.822 24.9003 147.771C24.9003 149.923 23.9276 151 21.9823 151C21.5683 151 21.1503 150.902 20.7284 150.707V153.226H19.1757V145.099ZM27.6308 142.621V151H26.078V142.621H27.6308ZM30.3612 147.9C30.3612 149.185 30.8593 149.828 31.8554 149.828C32.8515 149.828 33.3495 149.185 33.3495 147.9C33.3495 146.646 32.8515 146.019 31.8554 146.019C30.8593 146.019 30.3612 146.646 30.3612 147.9ZM28.8085 147.923C28.8085 145.861 29.8241 144.83 31.8554 144.83C33.8866 144.83 34.9022 145.861 34.9022 147.923C34.9022 149.982 33.8866 151.011 31.8554 151.011C29.8319 151.011 28.8163 149.982 28.8085 147.923ZM35.7812 149.083C35.7812 147.861 36.6718 147.25 38.453 147.25C38.871 147.25 39.289 147.289 39.7069 147.367V146.904C39.7069 146.353 39.3104 146.078 38.5175 146.078C37.8456 146.078 37.0995 146.175 36.2792 146.371V145.14C37.0995 144.945 37.8456 144.847 38.5175 144.847C40.3456 144.847 41.2597 145.523 41.2597 146.875V151H40.3573L39.8065 150.449C39.2714 150.816 38.6815 151 38.037 151C36.5331 151 35.7812 150.361 35.7812 149.083ZM39.7069 148.421C39.3163 148.343 38.8983 148.304 38.453 148.304C37.7069 148.304 37.3339 148.558 37.3339 149.066C37.3339 149.613 37.6464 149.886 38.2714 149.886C38.787 149.886 39.2655 149.726 39.7069 149.406V148.421ZM46.6269 146.453C46.3065 146.242 45.9042 146.136 45.4198 146.136C44.455 146.136 43.9726 146.677 43.9726 147.759C43.9726 149.044 44.4745 149.687 45.4784 149.687C45.8847 149.687 46.2675 149.63 46.6269 149.517V146.453ZM48.1796 150.63C47.2382 150.876 46.3183 151 45.4198 151C43.4315 151 42.4374 149.933 42.4374 147.8C42.4374 145.832 43.4101 144.847 45.3554 144.847C45.7694 144.847 46.1933 144.945 46.6269 145.14V142.621H48.1796V150.63Z" fill="white"/>
<path d="M52.4276 149.142C52.4276 147.88 53.2597 147.25 54.9237 147.25C55.4589 147.25 55.994 147.289 56.5292 147.367V146.787C56.5292 146.08 55.9765 145.726 54.871 145.726C54.2382 145.726 53.5897 145.824 52.9257 146.019V145.14C53.5897 144.945 54.2382 144.847 54.871 144.847C56.6991 144.847 57.6132 145.484 57.6132 146.757V151H57.0038L56.6288 150.39C56.0155 150.796 55.3476 151 54.6249 151C53.1601 151 52.4276 150.38 52.4276 149.142ZM54.9237 148.128C53.9823 148.128 53.5116 148.46 53.5116 149.125C53.5116 149.789 53.8827 150.121 54.6249 150.121C55.3749 150.121 56.0097 149.921 56.5292 149.523V148.246C55.994 148.167 55.4589 148.128 54.9237 148.128ZM61.4276 144.847H62.5995L64.3632 149.669L66.1151 144.847H67.287L64.7851 151H63.7772L61.4276 144.847ZM69.3671 144.847V151H68.2831V144.847H69.3671ZM69.3671 142.621V143.646H68.2831V142.621H69.3671ZM75.3788 146.101C74.9413 145.89 74.4413 145.785 73.8788 145.785C72.6405 145.785 72.0214 146.443 72.0214 147.759C72.0214 149.318 72.6405 150.097 73.8788 150.097C74.4413 150.097 74.9413 150.021 75.3788 149.869V146.101ZM76.4628 150.63C75.7167 150.876 74.7968 151 73.703 151C71.871 151 70.955 149.933 70.955 147.8C70.955 145.832 71.9276 144.847 73.8729 144.847C74.4042 144.847 74.9062 144.945 75.3788 145.14V142.621H76.4628V150.63ZM80.7577 144.847C82.5077 144.847 83.3827 145.712 83.3827 147.443C83.3827 147.689 83.3651 147.953 83.33 148.234H79.0116C79.0116 149.492 79.746 150.121 81.2147 150.121C81.914 150.121 82.5351 150.042 83.078 149.886V150.765C82.5351 150.921 81.8749 151 81.0976 151C78.9843 151 77.9276 149.951 77.9276 147.853C77.9276 145.849 78.871 144.847 80.7577 144.847ZM79.0116 147.332H82.3397C82.3163 146.253 81.789 145.714 80.7577 145.714C79.664 145.714 79.0819 146.253 79.0116 147.332ZM85.6327 147.9C85.6327 149.38 86.2479 150.121 87.4784 150.121C88.7089 150.121 89.3241 149.38 89.3241 147.9C89.3241 146.451 88.7089 145.726 87.4784 145.726C86.2479 145.726 85.6327 146.451 85.6327 147.9ZM84.5487 147.923C84.5487 145.873 85.5253 144.847 87.4784 144.847C89.4315 144.847 90.4081 145.873 90.4081 147.923C90.4081 149.97 89.4315 150.994 87.4784 150.994C85.5331 150.994 84.5565 149.97 84.5487 147.923ZM95.8866 145.726V151H94.8026V144.548C94.8026 142.982 95.6659 142.199 97.3925 142.199C97.9354 142.199 98.5097 142.316 99.1151 142.55V143.429C98.5331 143.195 97.9569 143.078 97.3866 143.078C96.3866 143.078 95.8866 143.533 95.8866 144.443V144.847H99.5546V151H98.4706V145.726H95.8866ZM102.578 142.621V151H101.494V142.621H102.578ZM106.937 144.847C108.687 144.847 109.562 145.712 109.562 147.443C109.562 147.689 109.545 147.953 109.51 148.234H105.191C105.191 149.492 105.926 150.121 107.394 150.121C108.094 150.121 108.715 150.042 109.258 149.886V150.765C108.715 150.921 108.055 151 107.277 151C105.164 151 104.107 149.951 104.107 147.853C104.107 145.849 105.051 144.847 106.937 144.847ZM105.191 147.332H108.519C108.496 146.253 107.969 145.714 106.937 145.714C105.844 145.714 105.262 146.253 105.191 147.332ZM113.951 151V144.548C113.951 143.06 114.795 142.316 116.482 142.316C116.947 142.316 117.385 142.394 117.795 142.55V143.429C117.408 143.273 116.969 143.195 116.476 143.195C115.516 143.195 115.035 143.63 115.035 144.501V144.847H116.939V145.726H115.035V151H113.951ZM118.123 151V144.847H118.855L119.049 145.632C119.588 145.109 120.236 144.847 120.994 144.847V145.75C120.26 145.75 119.664 146.009 119.207 146.529V151H118.123ZM122.875 147.9C122.875 149.38 123.49 150.121 124.721 150.121C125.951 150.121 126.566 149.38 126.566 147.9C126.566 146.451 125.951 145.726 124.721 145.726C123.49 145.726 122.875 146.451 122.875 147.9ZM121.791 147.923C121.791 145.873 122.767 144.847 124.721 144.847C126.674 144.847 127.65 145.873 127.65 147.923C127.65 149.97 126.674 150.994 124.721 150.994C122.775 150.994 121.799 149.97 121.791 147.923ZM129.115 151V144.847H129.848L130.029 145.621C130.619 145.105 131.262 144.847 131.957 144.847C132.848 144.847 133.455 145.128 133.779 145.691C134.447 145.128 135.125 144.847 135.812 144.847C137.226 144.847 137.934 145.626 137.934 147.185V151H136.85V147.126C136.85 146.208 136.463 145.75 135.689 145.75C135.111 145.75 134.57 146.015 134.066 146.546V151H132.982V147.144C132.982 146.214 132.6 145.75 131.834 145.75C131.225 145.75 130.68 146.015 130.199 146.546V151H129.115ZM24.6425 159.847H25.8202L27.5604 164.652L29.3593 159.847H30.5077L27.953 166.181C27.4999 167.298 26.8202 167.996 25.914 168.273L25.4979 167.505C26.1854 167.205 26.6854 166.714 26.9979 166.035L24.6425 159.847ZM32.3183 162.9C32.3183 164.38 32.9335 165.121 34.164 165.121C35.3944 165.121 36.0097 164.38 36.0097 162.9C36.0097 161.451 35.3944 160.726 34.164 160.726C32.9335 160.726 32.3183 161.451 32.3183 162.9ZM31.2343 162.923C31.2343 160.873 32.2108 159.847 34.164 159.847C36.1171 159.847 37.0937 160.873 37.0937 162.923C37.0937 164.97 36.1171 165.994 34.164 165.994C32.2187 165.994 31.2421 164.97 31.2343 162.923ZM43.8612 159.847V166H43.1171L42.9296 165.214C42.1835 165.738 41.4335 166 40.6796 166C39.2655 166 38.5585 165.236 38.5585 163.708V159.847H39.6425V163.726C39.6425 164.64 40.0956 165.097 41.0019 165.097C41.6229 165.097 42.2147 164.837 42.7772 164.318V159.847H43.8612ZM45.6249 166V159.847H46.3573L46.5507 160.632C47.0897 160.109 47.7382 159.847 48.496 159.847V160.75C47.7616 160.75 47.1659 161.009 46.7089 161.529V166H45.6249ZM53.6581 157.621V166H52.5741V157.621H53.6581ZM56.2714 162.9C56.2714 164.38 56.8866 165.121 58.1171 165.121C59.3476 165.121 59.9628 164.38 59.9628 162.9C59.9628 161.451 59.3476 160.726 58.1171 160.726C56.8866 160.726 56.2714 161.451 56.2714 162.9ZM55.1874 162.923C55.1874 160.873 56.164 159.847 58.1171 159.847C60.0702 159.847 61.0468 160.873 61.0468 162.923C61.0468 164.97 60.0702 165.994 58.1171 165.994C56.1718 165.994 55.1952 164.97 55.1874 162.923ZM67.1405 165.824C66.6327 165.941 66.0858 166 65.4999 166C63.3124 166 62.2187 164.935 62.2187 162.806C62.2187 160.833 63.3124 159.847 65.4999 159.847C66.0858 159.847 66.6327 159.906 67.1405 160.023V160.902C66.6327 160.785 66.0663 160.726 65.4413 160.726C64.0155 160.726 63.3026 161.419 63.3026 162.806C63.3026 164.349 64.0155 165.121 65.4413 165.121C66.0663 165.121 66.6327 165.062 67.1405 164.945V165.824ZM68.2304 164.142C68.2304 162.88 69.0624 162.25 70.7265 162.25C71.2616 162.25 71.7968 162.289 72.3319 162.367V161.787C72.3319 161.08 71.7792 160.726 70.6737 160.726C70.0409 160.726 69.3925 160.824 68.7284 161.019V160.14C69.3925 159.945 70.0409 159.847 70.6737 159.847C72.5019 159.847 73.4159 160.484 73.4159 161.757V166H72.8065L72.4315 165.39C71.8183 165.796 71.1503 166 70.4276 166C68.9628 166 68.2304 165.38 68.2304 164.142ZM70.7265 163.128C69.7851 163.128 69.3144 163.46 69.3144 164.125C69.3144 164.789 69.6854 165.121 70.4276 165.121C71.1776 165.121 71.8124 164.921 72.3319 164.523V163.246C71.7968 163.167 71.2616 163.128 70.7265 163.128ZM76.3222 157.621V166H75.2382V157.621H76.3222ZM81.0155 165.707V164.769C81.7382 165.003 82.4687 165.121 83.2069 165.121C84.1874 165.121 84.6776 164.828 84.6776 164.242C84.6776 163.695 84.3358 163.421 83.6522 163.421H82.7733C81.4452 163.421 80.7812 162.816 80.7812 161.605C80.7812 160.433 81.6347 159.847 83.3417 159.847C84.0761 159.847 84.8046 159.945 85.5272 160.14V161.078C84.8046 160.843 84.0761 160.726 83.3417 160.726C82.3183 160.726 81.8065 161.019 81.8065 161.605C81.8065 162.152 82.1288 162.425 82.7733 162.425H83.6522C85.0585 162.425 85.7616 163.031 85.7616 164.242C85.7616 165.414 84.9101 166 83.2069 166C82.4687 166 81.7382 165.902 81.0155 165.707ZM87.2265 158.851H87.9062L88.1405 159.847H89.8046V160.726H88.3104V164.259C88.3104 164.833 88.5585 165.121 89.0546 165.121H89.8046V166H88.7733C87.7421 166 87.2265 165.447 87.2265 164.341V158.851ZM91.9784 162.9C91.9784 164.38 92.5937 165.121 93.8241 165.121C95.0546 165.121 95.6698 164.38 95.6698 162.9C95.6698 161.451 95.0546 160.726 93.8241 160.726C92.5937 160.726 91.9784 161.451 91.9784 162.9ZM90.8944 162.923C90.8944 160.873 91.871 159.847 93.8241 159.847C95.7772 159.847 96.7538 160.873 96.7538 162.923C96.7538 164.97 95.7772 165.994 93.8241 165.994C91.8788 165.994 90.9022 164.97 90.8944 162.923ZM98.2187 166V159.847H98.9511L99.1444 160.632C99.6835 160.109 100.332 159.847 101.09 159.847V160.75C100.355 160.75 99.7597 161.009 99.3026 161.529V166H98.2187ZM101.887 164.142C101.887 162.88 102.719 162.25 104.383 162.25C104.918 162.25 105.453 162.289 105.988 162.367V161.787C105.988 161.08 105.435 160.726 104.33 160.726C103.697 160.726 103.049 160.824 102.385 161.019V160.14C103.049 159.945 103.697 159.847 104.33 159.847C106.158 159.847 107.072 160.484 107.072 161.757V166H106.463L106.088 165.39C105.475 165.796 104.807 166 104.084 166C102.619 166 101.887 165.38 101.887 164.142ZM104.383 163.128C103.441 163.128 102.971 163.46 102.971 164.125C102.971 164.789 103.342 165.121 104.084 165.121C104.834 165.121 105.469 164.921 105.988 164.523V163.246C105.453 163.167 104.918 163.128 104.383 163.128ZM112.949 160.89C112.578 160.796 112.119 160.75 111.572 160.75C110.264 160.75 109.609 161.458 109.609 162.876C109.609 164.333 110.228 165.062 111.467 165.062C112.029 165.062 112.523 164.957 112.949 164.746V160.89ZM114.033 166C114.033 167.484 113.09 168.226 111.203 168.226C110.445 168.226 109.773 168.128 109.187 167.933V167.054C109.785 167.25 110.461 167.347 111.215 167.347C112.371 167.347 112.949 166.898 112.949 166V165.707C112.488 165.902 111.992 166 111.461 166C109.516 166 108.543 164.962 108.543 162.888C108.543 160.861 109.568 159.847 111.619 159.847C112.451 159.847 113.256 159.931 114.033 160.099V166ZM118.334 159.847C120.084 159.847 120.959 160.712 120.959 162.443C120.959 162.689 120.941 162.953 120.906 163.234H116.588C116.588 164.492 117.322 165.121 118.791 165.121C119.49 165.121 120.111 165.042 120.654 164.886V165.765C120.111 165.921 119.451 166 118.674 166C116.56 166 115.504 164.951 115.504 162.853C115.504 160.849 116.447 159.847 118.334 159.847ZM116.588 162.332H119.916C119.892 161.253 119.365 160.714 118.334 160.714C117.24 160.714 116.658 161.253 116.588 162.332ZM123.209 164.916V166H122.125V164.916H123.209Z" fill="#B1B1B1"/>
<path d="M245.444 96.6495V107.35C245.444 108.15 245.794 108.733 246.494 109.1C247.194 109.466 247.878 109.433 248.544 109L256.844 103.7C257.478 103.333 257.794 102.766 257.794 102C257.794 101.233 257.478 100.666 256.844 100.3L248.544 94.9995C247.878 94.5662 247.194 94.5328 246.494 94.8995C245.794 95.2662 245.444 95.8495 245.444 96.6495ZM250.444 122C247.678 122 245.078 121.474 242.644 120.424C240.211 119.373 238.094 117.948 236.294 116.15C234.494 114.35 233.07 112.233 232.02 109.8C230.971 107.366 230.446 104.766 230.444 102C230.444 99.2328 230.97 96.6328 232.02 94.1995C233.071 91.7662 234.496 89.6495 236.294 87.8495C238.094 86.0495 240.211 84.6248 242.644 83.5755C245.078 82.5262 247.678 82.0008 250.444 81.9995C253.211 81.9995 255.811 82.5248 258.244 83.5755C260.678 84.6262 262.794 86.0508 264.594 87.8495C266.394 89.6495 267.82 91.7662 268.87 94.1995C269.921 96.6328 270.446 99.2328 270.444 102C270.444 104.766 269.919 107.366 268.868 109.8C267.818 112.233 266.393 114.35 264.594 116.15C262.794 117.95 260.678 119.375 258.244 120.426C255.811 121.476 253.211 122.001 250.444 122ZM250.444 118C254.878 118 258.653 116.442 261.77 113.326C264.888 110.21 266.446 106.434 266.444 102C266.444 97.5662 264.886 93.7908 261.77 90.6735C258.654 87.5562 254.879 85.9982 250.444 85.9995C246.011 85.9995 242.236 87.5575 239.118 90.6735C236.001 93.7895 234.443 97.5648 234.444 102C234.444 106.433 236.002 110.208 239.118 113.326C242.234 116.443 246.01 118.001 250.444 118Z" fill="white"/>
<path d="M199.005 150.707C198.282 150.941 197.501 151.058 196.661 151.058C193.731 151.058 192.267 149.603 192.267 146.693C192.267 143.939 193.731 142.562 196.661 142.562C197.501 142.562 198.282 142.679 199.005 142.914V143.851C198.282 143.578 197.54 143.441 196.778 143.441C194.493 143.441 193.35 144.525 193.35 146.693C193.35 149.017 194.493 150.179 196.778 150.179C197.54 150.179 198.282 150.042 199.005 149.769V150.707ZM201.823 142.621V151H200.739V142.621H201.823ZM204.847 144.847V151H203.763V144.847H204.847ZM204.847 142.621V143.646H203.763V142.621H204.847ZM211.356 150.824C210.849 150.941 210.302 151 209.716 151C207.528 151 206.434 149.935 206.434 147.806C206.434 145.833 207.528 144.847 209.716 144.847C210.302 144.847 210.849 144.906 211.356 145.023V145.902C210.849 145.785 210.282 145.726 209.657 145.726C208.231 145.726 207.518 146.419 207.518 147.806C207.518 149.349 208.231 150.121 209.657 150.121C210.282 150.121 210.849 150.062 211.356 149.945V150.824ZM212.739 151V142.621H213.823V145.328C214.421 145.007 215.11 144.847 215.892 144.847C217.423 144.847 218.188 145.439 218.188 146.623C218.188 147.482 217.602 148.076 216.431 148.404L218.399 151H217.028L215.071 148.392V147.906C216.427 147.785 217.104 147.355 217.104 146.617C217.104 146.023 216.675 145.726 215.815 145.726C215.14 145.726 214.475 145.91 213.823 146.277V151H212.739ZM223.386 147.9C223.386 149.38 224.001 150.121 225.231 150.121C226.462 150.121 227.077 149.38 227.077 147.9C227.077 146.451 226.462 145.726 225.231 145.726C224.001 145.726 223.386 146.451 223.386 147.9ZM222.302 147.923C222.302 145.873 223.278 144.847 225.231 144.847C227.184 144.847 228.161 145.873 228.161 147.923C228.161 149.97 227.184 150.994 225.231 150.994C223.286 150.994 222.309 149.97 222.302 147.923ZM229.626 151V144.847H230.358L230.552 145.632C231.181 145.109 231.872 144.847 232.626 144.847C234.161 144.847 234.929 145.611 234.929 147.138V151H233.845V147.121C233.845 146.207 233.39 145.75 232.479 145.75C231.858 145.75 231.268 146.009 230.71 146.529V151H229.626ZM240.999 142.621L240.12 145.169H239.036L239.915 142.621H240.999ZM294.987 142.621L294.108 145.169H293.024L293.903 142.621H294.987ZM299.095 143.851H299.774L300.009 144.847H301.673V145.726H300.179V149.259C300.179 149.833 300.427 150.121 300.923 150.121H301.673V151H300.642C299.61 151 299.095 150.447 299.095 149.341V143.851ZM303.847 147.9C303.847 149.38 304.462 150.121 305.692 150.121C306.923 150.121 307.538 149.38 307.538 147.9C307.538 146.451 306.923 145.726 305.692 145.726C304.462 145.726 303.847 146.451 303.847 147.9ZM302.763 147.923C302.763 145.873 303.739 144.847 305.692 144.847C307.645 144.847 308.622 145.873 308.622 147.923C308.622 149.97 307.645 150.994 305.692 150.994C303.747 150.994 302.77 149.97 302.763 147.923ZM196.216 159.847H197.311L198.401 164.669L200.001 159.847H200.979L202.69 164.669L203.675 159.847H204.823L203.218 166H202.227L200.464 161.4L198.788 166H197.774L196.216 159.847ZM205.62 164.142C205.62 162.88 206.452 162.25 208.116 162.25C208.651 162.25 209.186 162.289 209.722 162.367V161.787C209.722 161.08 209.169 160.726 208.063 160.726C207.431 160.726 206.782 160.824 206.118 161.019V160.14C206.782 159.945 207.431 159.847 208.063 159.847C209.892 159.847 210.806 160.484 210.806 161.757V166H210.196L209.821 165.39C209.208 165.796 208.54 166 207.817 166C206.352 166 205.62 165.38 205.62 164.142ZM208.116 163.128C207.175 163.128 206.704 163.46 206.704 164.125C206.704 164.789 207.075 165.121 207.817 165.121C208.567 165.121 209.202 164.921 209.722 164.523V163.246C209.186 163.167 208.651 163.128 208.116 163.128ZM212.569 158.851H213.249L213.483 159.847H215.147V160.726H213.653V164.259C213.653 164.833 213.901 165.121 214.397 165.121H215.147V166H214.116C213.085 166 212.569 165.447 212.569 164.341V158.851ZM221.159 165.824C220.651 165.941 220.104 166 219.518 166C217.331 166 216.237 164.935 216.237 162.806C216.237 160.833 217.331 159.847 219.518 159.847C220.104 159.847 220.651 159.906 221.159 160.023V160.902C220.651 160.785 220.085 160.726 219.46 160.726C218.034 160.726 217.321 161.419 217.321 162.806C217.321 164.349 218.034 165.121 219.46 165.121C220.085 165.121 220.651 165.062 221.159 164.945V165.824ZM222.542 166V157.621H223.626V160.515C224.149 160.07 224.788 159.847 225.542 159.847C227.077 159.847 227.845 160.611 227.845 162.138V166H226.761V162.121C226.761 161.207 226.306 160.75 225.395 160.75C224.774 160.75 224.184 161.009 223.626 161.529V166H222.542ZM233.739 159.847V166H232.655V159.847H233.739ZM233.739 157.621V158.646H232.655V157.621H233.739ZM235.62 158.851H236.3L236.534 159.847H238.198V160.726H236.704V164.259C236.704 164.833 236.952 165.121 237.448 165.121H238.198V166H237.167C236.136 166 235.62 165.447 235.62 164.341V158.851ZM243.712 159.847V166H242.628V159.847H243.712ZM243.712 157.621V158.646H242.628V157.621H243.712ZM245.593 166V159.847H246.325L246.518 160.632C247.147 160.109 247.839 159.847 248.593 159.847C250.128 159.847 250.895 160.611 250.895 162.138V166H249.811V162.121C249.811 161.207 249.356 160.75 248.446 160.75C247.825 160.75 247.235 161.009 246.677 161.529V166H245.593ZM252.6 165.707V164.769C253.323 165.003 254.054 165.121 254.792 165.121C255.772 165.121 256.263 164.828 256.263 164.242C256.263 163.695 255.921 163.421 255.237 163.421H254.358C253.03 163.421 252.366 162.816 252.366 161.605C252.366 160.433 253.22 159.847 254.927 159.847C255.661 159.847 256.39 159.945 257.112 160.14V161.078C256.39 160.843 255.661 160.726 254.927 160.726C253.903 160.726 253.392 161.019 253.392 161.605C253.392 162.152 253.714 162.425 254.358 162.425H255.237C256.643 162.425 257.347 163.031 257.347 164.242C257.347 165.414 256.495 166 254.792 166C254.054 166 253.323 165.902 252.6 165.707ZM258.811 158.851H259.491L259.725 159.847H261.39V160.726H259.895V164.259C259.895 164.833 260.143 165.121 260.64 165.121H261.39V166H260.358C259.327 166 258.811 165.447 258.811 164.341V158.851ZM262.479 164.142C262.479 162.88 263.311 162.25 264.975 162.25C265.511 162.25 266.046 162.289 266.581 162.367V161.787C266.581 161.08 266.028 160.726 264.923 160.726C264.29 160.726 263.642 160.824 262.977 161.019V160.14C263.642 159.945 264.29 159.847 264.923 159.847C266.751 159.847 267.665 160.484 267.665 161.757V166H267.056L266.681 165.39C266.067 165.796 265.399 166 264.677 166C263.212 166 262.479 165.38 262.479 164.142ZM264.975 163.128C264.034 163.128 263.563 163.46 263.563 164.125C263.563 164.789 263.934 165.121 264.677 165.121C265.427 165.121 266.061 164.921 266.581 164.523V163.246C266.046 163.167 265.511 163.128 264.975 163.128ZM269.429 166V159.847H270.161L270.354 160.632C270.983 160.109 271.675 159.847 272.429 159.847C273.964 159.847 274.731 160.611 274.731 162.138V166H273.647V162.121C273.647 161.207 273.192 160.75 272.282 160.75C271.661 160.75 271.071 161.009 270.513 161.529V166H269.429ZM276.495 158.851H277.175L277.409 159.847H279.073V160.726H277.579V164.259C277.579 164.833 277.827 165.121 278.323 165.121H279.073V166H278.042C277.011 166 276.495 165.447 276.495 164.341V158.851ZM281.599 157.621V166H280.515V157.621H281.599ZM282.688 159.847H283.866L285.606 164.652L287.405 159.847H288.554L285.999 166.181C285.546 167.298 284.866 167.996 283.96 168.273L283.544 167.505C284.231 167.205 284.731 166.714 285.044 166.035L282.688 159.847ZM290.804 164.916L289.925 167.464H288.841L289.72 164.916H290.804ZM295.556 162.9C295.556 164.38 296.171 165.121 297.401 165.121C298.632 165.121 299.247 164.38 299.247 162.9C299.247 161.451 298.632 160.726 297.401 160.726C296.171 160.726 295.556 161.451 295.556 162.9ZM294.472 162.923C294.472 160.873 295.448 159.847 297.401 159.847C299.354 159.847 300.331 160.873 300.331 162.923C300.331 164.97 299.354 165.994 297.401 165.994C295.456 165.994 294.479 164.97 294.472 162.923ZM301.796 166V159.847H302.528L302.722 160.632C303.261 160.109 303.909 159.847 304.667 159.847V160.75C303.933 160.75 303.337 161.009 302.88 161.529V166H301.796Z" fill="#B1B1B1"/>
<path d="M242.024 151V142.621H245.774C247.485 142.621 248.341 143.408 248.341 144.982C248.341 146.689 247.171 147.722 244.831 148.082L244.608 146.699C246.015 146.445 246.718 145.888 246.718 145.029C246.718 144.333 246.37 143.986 245.675 143.986H243.577V151H242.024ZM250.778 142.621V151H249.225V142.621H250.778ZM251.956 149.083C251.956 147.861 252.847 147.25 254.628 147.25C255.046 147.25 255.464 147.289 255.882 147.367V146.904C255.882 146.353 255.485 146.078 254.692 146.078C254.02 146.078 253.274 146.175 252.454 146.371V145.14C253.274 144.945 254.02 144.847 254.692 144.847C256.52 144.847 257.434 145.523 257.434 146.875V151H256.532L255.981 150.449C255.446 150.816 254.856 151 254.212 151C252.708 151 251.956 150.361 251.956 149.083ZM255.882 148.421C255.491 148.343 255.073 148.304 254.628 148.304C253.882 148.304 253.509 148.558 253.509 149.066C253.509 149.613 253.821 149.886 254.446 149.886C254.962 149.886 255.44 149.726 255.882 149.406V148.421ZM258.173 144.847H259.819L261.372 149.277L262.89 144.847H264.507L261.952 151.181C261.499 152.298 260.774 153.093 259.778 153.566L259.028 152.505C259.716 152.205 260.216 151.714 260.528 151.035L258.173 144.847ZM268.028 151V142.621H269.581L274.005 148.726V142.621H275.499V151H273.946L269.522 144.765V151H268.028ZM278.376 147.9C278.376 149.185 278.874 149.828 279.87 149.828C280.866 149.828 281.364 149.185 281.364 147.9C281.364 146.646 280.866 146.019 279.87 146.019C278.874 146.019 278.376 146.646 278.376 147.9ZM276.823 147.923C276.823 145.861 277.839 144.83 279.87 144.83C281.901 144.83 282.917 145.861 282.917 147.923C282.917 149.982 281.901 151.011 279.87 151.011C277.847 151.011 276.831 149.982 276.823 147.923ZM283.561 144.847H285.126L285.923 149.13L287.347 144.847H288.677L290.212 149.13L290.903 144.847H292.52L290.915 151H289.456L288.009 146.634L286.544 151H285.061L283.561 144.847Z" fill="white"/>
<path d="M424.592 102H434.642C435.209 102 435.676 101.808 436.042 101.424C436.409 101.04 436.592 100.565 436.592 99.9995C436.592 99.4328 436.4 98.9575 436.016 98.5735C435.632 98.1895 435.158 97.9982 434.592 97.9995H424.542C423.976 97.9995 423.509 98.1915 423.142 98.5755C422.776 98.9595 422.592 99.4342 422.592 99.9995C422.592 100.566 422.784 101.042 423.168 101.426C423.552 101.81 424.027 102.001 424.592 102ZM424.592 95.9995H434.642C435.209 95.9995 435.676 95.8075 436.042 95.4235C436.409 95.0395 436.592 94.5648 436.592 93.9995C436.592 93.4328 436.4 92.9575 436.016 92.5735C435.632 92.1895 435.158 91.9982 434.592 91.9995H424.542C423.976 91.9995 423.509 92.1915 423.142 92.5755C422.776 92.9595 422.592 93.4342 422.592 93.9995C422.592 94.5662 422.784 95.0415 423.168 95.4255C423.552 95.8095 424.027 96.0008 424.592 95.9995ZM424.592 108H426.642C427.209 108 427.676 107.808 428.042 107.424C428.409 107.04 428.592 106.565 428.592 106C428.592 105.433 428.4 104.958 428.016 104.574C427.632 104.19 427.158 103.998 426.592 104H424.542C423.976 104 423.509 104.192 423.142 104.576C422.776 104.96 422.592 105.434 422.592 106C422.592 106.566 422.784 107.042 423.168 107.426C423.552 107.81 424.027 108.001 424.592 108ZM432.592 122C429.826 122 427.226 121.474 424.792 120.424C422.359 119.373 420.242 117.948 418.442 116.15C416.642 114.35 415.218 112.233 414.168 109.8C413.119 107.366 412.594 104.766 412.592 102C412.592 99.2328 413.118 96.6328 414.168 94.1995C415.219 91.7662 416.644 89.6495 418.442 87.8495C420.242 86.0495 422.359 84.6248 424.792 83.5755C427.226 82.5262 429.826 82.0008 432.592 81.9995C435.359 81.9995 437.959 82.5248 440.392 83.5755C442.826 84.6262 444.942 86.0508 446.742 87.8495C448.542 89.6495 449.968 91.7662 451.018 94.1995C452.069 96.6328 452.594 99.2328 452.592 102C452.592 104.766 452.067 107.366 451.016 109.8C449.966 112.233 448.541 114.35 446.742 116.15C444.942 117.95 442.826 119.375 440.392 120.426C437.959 121.476 435.359 122.001 432.592 122ZM432.592 118C437.026 118 440.801 116.442 443.918 113.326C447.036 110.21 448.594 106.434 448.592 102C448.592 97.5662 447.034 93.7908 443.918 90.6735C440.802 87.5562 437.027 85.9982 432.592 85.9995C428.159 85.9995 424.384 87.5575 421.266 90.6735C418.149 93.7895 416.591 97.5648 416.592 102C416.592 106.433 418.15 110.208 421.266 113.326C424.382 116.443 428.158 118.001 432.592 118ZM436.692 109.1L435.292 107.7C434.892 107.3 434.418 107.092 433.868 107.076C433.319 107.06 432.844 107.251 432.442 107.65C432.042 108.05 431.842 108.525 431.842 109.076C431.842 109.626 432.042 110.101 432.442 110.5L435.292 113.35C435.692 113.75 436.159 113.95 436.692 113.95C437.226 113.95 437.692 113.75 438.092 113.35L445.242 106.2C445.642 105.8 445.834 105.333 445.818 104.8C445.802 104.266 445.594 103.8 445.192 103.4C444.792 103.033 444.326 102.842 443.792 102.826C443.259 102.81 442.792 103.001 442.392 103.4L436.692 109.1Z" fill="white"/>
<path d="M372.926 150.707C372.204 150.941 371.422 151.058 370.583 151.058C367.653 151.058 366.188 149.603 366.188 146.693C366.188 143.939 367.653 142.562 370.583 142.562C371.422 142.562 372.204 142.679 372.926 142.914V143.851C372.204 143.578 371.461 143.441 370.7 143.441C368.415 143.441 367.272 144.525 367.272 146.693C367.272 149.017 368.415 150.179 370.7 150.179C371.461 150.179 372.204 150.042 372.926 149.769V150.707ZM374.602 151V144.847H375.334L375.528 145.632C376.067 145.109 376.715 144.847 377.473 144.847V145.75C376.739 145.75 376.143 146.009 375.686 146.529V151H374.602ZM381.1 144.847C382.85 144.847 383.725 145.712 383.725 147.443C383.725 147.689 383.708 147.953 383.672 148.234H379.354C379.354 149.492 380.088 150.121 381.557 150.121C382.256 150.121 382.877 150.042 383.42 149.886V150.765C382.877 150.921 382.217 151 381.44 151C379.327 151 378.27 149.951 378.27 147.853C378.27 145.849 379.213 144.847 381.1 144.847ZM379.354 147.332H382.682C382.659 146.253 382.131 145.714 381.1 145.714C380.006 145.714 379.424 146.253 379.354 147.332ZM384.891 149.142C384.891 147.88 385.723 147.25 387.387 147.25C387.922 147.25 388.458 147.289 388.993 147.367V146.787C388.993 146.08 388.44 145.726 387.334 145.726C386.702 145.726 386.053 145.824 385.389 146.019V145.14C386.053 144.945 386.702 144.847 387.334 144.847C389.163 144.847 390.077 145.484 390.077 146.757V151H389.467L389.092 150.39C388.479 150.796 387.811 151 387.088 151C385.624 151 384.891 150.38 384.891 149.142ZM387.387 148.128C386.446 148.128 385.975 148.46 385.975 149.125C385.975 149.789 386.346 150.121 387.088 150.121C387.838 150.121 388.473 149.921 388.993 149.523V148.246C388.458 148.167 387.922 148.128 387.387 148.128ZM391.84 143.851H392.52L392.754 144.847H394.418V145.726H392.924V149.259C392.924 149.833 393.172 150.121 393.668 150.121H394.418V151H393.387C392.356 151 391.84 150.447 391.84 149.341V143.851ZM398.338 144.847C400.088 144.847 400.963 145.712 400.963 147.443C400.963 147.689 400.946 147.953 400.911 148.234H396.592C396.592 149.492 397.327 150.121 398.795 150.121C399.495 150.121 400.116 150.042 400.659 149.886V150.765C400.116 150.921 399.456 151 398.678 151C396.565 151 395.508 149.951 395.508 147.853C395.508 145.849 396.452 144.847 398.338 144.847ZM396.592 147.332H399.92C399.897 146.253 399.37 145.714 398.338 145.714C397.245 145.714 396.663 146.253 396.592 147.332ZM405.059 149.142C405.059 147.88 405.891 147.25 407.555 147.25C408.09 147.25 408.625 147.289 409.161 147.367V146.787C409.161 146.08 408.608 145.726 407.502 145.726C406.87 145.726 406.221 145.824 405.557 146.019V145.14C406.221 144.945 406.87 144.847 407.502 144.847C409.331 144.847 410.245 145.484 410.245 146.757V151H409.635L409.26 150.39C408.647 150.796 407.979 151 407.256 151C405.792 151 405.059 150.38 405.059 149.142ZM407.555 148.128C406.614 148.128 406.143 148.46 406.143 149.125C406.143 149.789 406.514 150.121 407.256 150.121C408.006 150.121 408.641 149.921 409.161 149.523V148.246C408.625 148.167 408.09 148.128 407.555 148.128ZM456.077 144.847H457.172L458.262 149.669L459.862 144.847H460.84L462.551 149.669L463.536 144.847H464.684L463.079 151H462.088L460.325 146.4L458.649 151H457.635L456.077 144.847ZM466.975 144.847V151H465.891V144.847H466.975ZM466.975 142.621V143.646H465.891V142.621H466.975ZM468.856 143.851H469.536L469.77 144.847H471.434V145.726H469.94V149.259C469.94 149.833 470.188 150.121 470.684 150.121H471.434V151H470.403C469.372 151 468.856 150.447 468.856 149.341V143.851ZM472.817 151V142.621H473.901V145.515C474.424 145.07 475.063 144.847 475.817 144.847C477.352 144.847 478.12 145.611 478.12 147.138V151H477.036V147.121C477.036 146.207 476.581 145.75 475.67 145.75C475.049 145.75 474.459 146.009 473.901 146.529V151H472.817ZM482.813 143.851H483.493L483.727 144.847H485.391V145.726H483.897V149.259C483.897 149.833 484.145 150.121 484.641 150.121H485.391V151H484.36C483.329 151 482.813 150.447 482.813 149.341V143.851ZM486.774 151V142.621H487.858V145.515C488.381 145.07 489.02 144.847 489.774 144.847C491.309 144.847 492.077 145.611 492.077 147.138V151H490.993V147.121C490.993 146.207 490.538 145.75 489.627 145.75C489.006 145.75 488.417 146.009 487.858 146.529V151H486.774ZM496.377 144.847C498.127 144.847 499.002 145.712 499.002 147.443C499.002 147.689 498.985 147.953 498.95 148.234H494.631C494.631 149.492 495.366 150.121 496.834 150.121C497.534 150.121 498.155 150.042 498.698 149.886V150.765C498.155 150.921 497.495 151 496.717 151C494.604 151 493.547 149.951 493.547 147.853C493.547 145.849 494.491 144.847 496.377 144.847ZM494.631 147.332H497.959C497.936 146.253 497.409 145.714 496.377 145.714C495.284 145.714 494.702 146.253 494.631 147.332ZM395.772 159.847V166H395.028L394.84 165.214C394.094 165.738 393.344 166 392.59 166C391.176 166 390.469 165.236 390.469 163.708V159.847H391.553V163.726C391.553 164.64 392.006 165.097 392.913 165.097C393.534 165.097 394.125 164.837 394.688 164.318V159.847H395.772ZM398.62 164.746C399.045 164.957 399.52 165.062 400.043 165.062C401.321 165.062 401.959 164.294 401.959 162.759C401.959 161.419 401.325 160.75 400.055 160.75C399.508 160.75 399.03 160.796 398.62 160.89V164.746ZM397.536 160.099C398.352 159.931 399.196 159.847 400.067 159.847C402.04 159.847 403.026 160.822 403.026 162.771C403.026 164.923 402.034 166 400.049 166C399.557 166 399.081 165.902 398.62 165.707V168.226H397.536V160.099ZM405.639 157.621V166H404.555V157.621H405.639ZM408.252 162.9C408.252 164.38 408.868 165.121 410.098 165.121C411.329 165.121 411.944 164.38 411.944 162.9C411.944 161.451 411.329 160.726 410.098 160.726C408.868 160.726 408.252 161.451 408.252 162.9ZM407.168 162.923C407.168 160.873 408.145 159.847 410.098 159.847C412.051 159.847 413.028 160.873 413.028 162.923C413.028 164.97 412.051 165.994 410.098 165.994C408.153 165.994 407.176 164.97 407.168 162.923ZM414.2 164.142C414.2 162.88 415.032 162.25 416.696 162.25C417.231 162.25 417.766 162.289 418.301 162.367V161.787C418.301 161.08 417.749 160.726 416.643 160.726C416.01 160.726 415.362 160.824 414.698 161.019V160.14C415.362 159.945 416.01 159.847 416.643 159.847C418.471 159.847 419.385 160.484 419.385 161.757V166H418.776L418.401 165.39C417.788 165.796 417.12 166 416.397 166C414.932 166 414.2 165.38 414.2 164.142ZM416.696 163.128C415.754 163.128 415.284 163.46 415.284 164.125C415.284 164.789 415.655 165.121 416.397 165.121C417.147 165.121 417.782 164.921 418.301 164.523V163.246C417.766 163.167 417.231 163.128 416.696 163.128ZM425.28 161.101C424.842 160.89 424.342 160.785 423.78 160.785C422.542 160.785 421.922 161.443 421.922 162.759C421.922 164.318 422.542 165.097 423.78 165.097C424.342 165.097 424.842 165.021 425.28 164.869V161.101ZM426.364 165.63C425.618 165.876 424.698 166 423.604 166C421.772 166 420.856 164.933 420.856 162.8C420.856 160.832 421.829 159.847 423.774 159.847C424.305 159.847 424.807 159.945 425.28 160.14V157.621H426.364V165.63ZM430.659 159.847C432.409 159.847 433.284 160.712 433.284 162.443C433.284 162.689 433.266 162.953 433.231 163.234H428.913C428.913 164.492 429.647 165.121 431.116 165.121C431.815 165.121 432.436 165.042 432.979 164.886V165.765C432.436 165.921 431.776 166 430.999 166C428.885 166 427.829 164.951 427.829 162.853C427.829 160.849 428.772 159.847 430.659 159.847ZM428.913 162.332H432.241C432.217 161.253 431.69 160.714 430.659 160.714C429.565 160.714 428.983 161.253 428.913 162.332ZM438.874 161.101C438.436 160.89 437.936 160.785 437.374 160.785C436.135 160.785 435.516 161.443 435.516 162.759C435.516 164.318 436.135 165.097 437.374 165.097C437.936 165.097 438.436 165.021 438.874 164.869V161.101ZM439.958 165.63C439.211 165.876 438.292 166 437.198 166C435.366 166 434.45 164.933 434.45 162.8C434.45 160.832 435.422 159.847 437.368 159.847C437.899 159.847 438.401 159.945 438.874 160.14V157.621H439.958V165.63ZM443.766 159.847H444.938L446.702 164.669L448.454 159.847H449.625L447.124 166H446.116L443.766 159.847ZM451.706 159.847V166H450.622V159.847H451.706ZM451.706 157.621V158.646H450.622V157.621H451.706ZM457.717 161.101C457.28 160.89 456.78 160.785 456.217 160.785C454.979 160.785 454.36 161.443 454.36 162.759C454.36 164.318 454.979 165.097 456.217 165.097C456.78 165.097 457.28 165.021 457.717 164.869V161.101ZM458.801 165.63C458.055 165.876 457.135 166 456.042 166C454.209 166 453.293 164.933 453.293 162.8C453.293 160.832 454.266 159.847 456.211 159.847C456.743 159.847 457.245 159.945 457.717 160.14V157.621H458.801V165.63ZM463.096 159.847C464.846 159.847 465.721 160.712 465.721 162.443C465.721 162.689 465.704 162.953 465.668 163.234H461.35C461.35 164.492 462.084 165.121 463.553 165.121C464.252 165.121 464.874 165.042 465.417 164.886V165.765C464.874 165.921 464.213 166 463.436 166C461.323 166 460.266 164.951 460.266 162.853C460.266 160.849 461.209 159.847 463.096 159.847ZM461.35 162.332H464.678C464.655 161.253 464.127 160.714 463.096 160.714C462.002 160.714 461.42 161.253 461.35 162.332ZM467.971 162.9C467.971 164.38 468.586 165.121 469.817 165.121C471.047 165.121 471.663 164.38 471.663 162.9C471.663 161.451 471.047 160.726 469.817 160.726C468.586 160.726 467.971 161.451 467.971 162.9ZM466.887 162.923C466.887 160.873 467.864 159.847 469.817 159.847C471.77 159.847 472.747 160.873 472.747 162.923C472.747 164.97 471.77 165.994 469.817 165.994C467.872 165.994 466.895 164.97 466.887 162.923ZM475.002 164.916V166H473.918V164.916H475.002Z" fill="#B1B1B1"/>
<path d="M416.344 149.394C416.731 149.605 417.147 149.71 417.592 149.71C418.518 149.71 418.981 149.06 418.981 147.759C418.981 146.654 418.469 146.101 417.446 146.101C417.004 146.101 416.637 146.128 416.344 146.183V149.394ZM414.792 145.099C415.608 144.931 416.471 144.847 417.381 144.847C419.471 144.847 420.516 145.822 420.516 147.771C420.516 149.923 419.543 151 417.598 151C417.184 151 416.766 150.902 416.344 150.707V153.226H414.792V145.099ZM423.247 142.621V151H421.694V142.621H423.247ZM424.424 149.083C424.424 147.861 425.315 147.25 427.096 147.25C427.514 147.25 427.932 147.289 428.35 147.367V146.904C428.35 146.353 427.954 146.078 427.161 146.078C426.489 146.078 425.743 146.175 424.922 146.371V145.14C425.743 144.945 426.489 144.847 427.161 144.847C428.989 144.847 429.903 145.523 429.903 146.875V151H429L428.45 150.449C427.915 150.816 427.325 151 426.68 151C425.176 151 424.424 150.361 424.424 149.083ZM428.35 148.421C427.959 148.343 427.542 148.304 427.096 148.304C426.35 148.304 425.977 148.558 425.977 149.066C425.977 149.613 426.29 149.886 426.915 149.886C427.43 149.886 427.909 149.726 428.35 149.406V148.421ZM430.641 144.847H432.288L433.84 149.277L435.358 144.847H436.975L434.42 151.181C433.967 152.298 433.243 153.093 432.247 153.566L431.497 152.505C432.184 152.205 432.684 151.714 432.997 151.035L430.641 144.847ZM439.266 142.621V151H437.713V142.621H439.266ZM442.29 142.621V143.851H440.737V142.621H442.29ZM442.29 144.847V151H440.737V144.847H442.29ZM443.76 150.707V149.417C444.444 149.691 445.233 149.828 446.127 149.828C446.795 149.828 447.129 149.613 447.129 149.183C447.129 148.773 446.905 148.568 446.456 148.568H445.342C444.092 148.568 443.467 147.953 443.467 146.722C443.467 145.433 444.379 144.789 446.204 144.789C446.977 144.789 447.706 144.906 448.389 145.14V146.429C447.706 146.156 446.963 146.019 446.163 146.019C445.323 146.019 444.903 146.234 444.903 146.664C444.903 147.074 445.147 147.279 445.635 147.279H446.631C447.999 147.279 448.682 147.894 448.682 149.125C448.682 150.414 447.811 151.058 446.069 151.058C445.213 151.058 444.444 150.941 443.76 150.707ZM449.684 143.851H450.833L451.067 144.847H452.614V146.078H451.237V148.908C451.237 149.482 451.485 149.769 451.981 149.769H452.614V151H451.231C450.2 151 449.684 150.447 449.684 149.341V143.851Z" fill="white"/>
<defs>
<linearGradient id="paint0_linear_697_740" x1="428.005" y1="64.9994" x2="256.34" y2="59.7328" gradientUnits="userSpaceOnUse">
<stop stop-color="#7C5BEB"/>
<stop offset="1" stop-color="#28CAA6"/>
</linearGradient>
<linearGradient id="paint1_linear_697_740" x1="68.8568" y1="0.820801" x2="80.0983" y2="1.47417" gradientUnits="userSpaceOnUse">
<stop stop-color="#8350F1"/>
<stop offset="1" stop-color="#00FF85"/>
</linearGradient>
<linearGradient id="paint2_linear_697_740" x1="250.369" y1="0.820801" x2="271.269" y2="3.09851" gradientUnits="userSpaceOnUse">
<stop stop-color="#8350F1"/>
<stop offset="1" stop-color="#00FF85"/>
</linearGradient>
<linearGradient id="paint3_linear_697_740" x1="429.967" y1="0.820801" x2="450.868" y2="3.09851" gradientUnits="userSpaceOnUse">
<stop stop-color="#8350F1"/>
<stop offset="1" stop-color="#00FF85"/>
</linearGradient>
<linearGradient id="paint4_linear_697_740" x1="84.1063" y1="28.9996" x2="257.665" y2="34.3831" gradientUnits="userSpaceOnUse">
<stop stop-color="#7C5BEB"/>
<stop offset="1" stop-color="#28CAA6"/>
</linearGradient>
</defs>
</svg>
