<svg width="38" height="38" viewBox="0 0 38 38" fill="none" xmlns="http://www.w3.org/2000/svg">
<g clip-path="url(#clip0_697_2059)">
<rect width="38" height="38" rx="19" fill="white"/>
<path d="M26.6235 10.3894C26.5042 10.2699 26.3625 10.1751 26.2065 10.1104C26.0505 10.0457 25.8833 10.0123 25.7144 10.0123C25.5455 10.0123 25.3783 10.0457 25.2223 10.1104C25.0663 10.1751 24.9246 10.2699 24.8054 10.3894L18.5 16.6819L12.1946 10.3765C12.0753 10.2572 11.9335 10.1625 11.7776 10.0979C11.6216 10.0333 11.4544 10 11.2856 10C11.1168 10 10.9496 10.0333 10.7936 10.0979C10.6376 10.1625 10.4959 10.2572 10.3765 10.3765C10.2572 10.4959 10.1625 10.6376 10.0979 10.7936C10.0333 10.9496 10 11.1168 10 11.2856C10 11.4544 10.0333 11.6216 10.0979 11.7776C10.1625 11.9335 10.2572 12.0753 10.3765 12.1946L16.6819 18.5L10.3765 24.8054C10.2572 24.9247 10.1625 25.0665 10.0979 25.2224C10.0333 25.3784 10 25.5456 10 25.7144C10 25.8832 10.0333 26.0504 10.0979 26.2064C10.1625 26.3624 10.2572 26.5041 10.3765 26.6235C10.4959 26.7428 10.6376 26.8375 10.7936 26.9021C10.9496 26.9667 11.1168 27 11.2856 27C11.4544 27 11.6216 26.9667 11.7776 26.9021C11.9335 26.8375 12.0753 26.7428 12.1946 26.6235L18.5 20.3181L24.8054 26.6235C24.9247 26.7428 25.0665 26.8375 25.2224 26.9021C25.3784 26.9667 25.5456 27 25.7144 27C25.8832 27 26.0504 26.9667 26.2064 26.9021C26.3624 26.8375 26.5041 26.7428 26.6235 26.6235C26.7428 26.5041 26.8375 26.3624 26.9021 26.2064C26.9667 26.0504 27 25.8832 27 25.7144C27 25.5456 26.9667 25.3784 26.9021 25.2224C26.8375 25.0665 26.7428 24.9247 26.6235 24.8054L20.3181 18.5L26.6235 12.1946C27.1134 11.7047 27.1134 10.8794 26.6235 10.3894Z" fill="#2F2F2F"/>
</g>
<defs>
<clipPath id="clip0_697_2059">
<rect width="38" height="38" rx="19" fill="white"/>
</clipPath>
</defs>
</svg>
