<svg width="44" height="44" viewBox="0 0 44 44" fill="none" xmlns="http://www.w3.org/2000/svg">
<path fill-rule="evenodd" clip-rule="evenodd" d="M43.6661 21.9996C43.6661 33.9661 33.9659 43.6662 21.9994 43.6662C10.0329 43.6662 0.332764 33.9661 0.332764 21.9996C0.332764 10.0331 10.0329 0.332886 21.9994 0.332886C33.9659 0.332886 43.6661 10.0331 43.6661 21.9996ZM19.2846 8.98655C19.2881 9.41716 19.1205 9.83154 18.8186 10.1387C18.5168 10.4458 18.1054 10.6205 17.6748 10.6246C15.8201 10.6397 14.5244 10.7004 13.5494 10.8932C12.6221 11.0752 12.1064 11.3526 11.7294 11.7296C11.3524 12.1066 11.0751 12.6222 10.8931 13.5496C10.7024 14.5246 10.6396 15.8202 10.6244 17.6749C10.6207 18.1059 10.4459 18.5177 10.1385 18.8198C9.83113 19.1219 9.41632 19.2895 8.98535 19.2858C8.55437 19.2821 8.14253 19.1073 7.84042 18.7999C7.53832 18.4925 7.3707 18.0777 7.37443 17.6467C7.3896 15.8051 7.4481 14.2299 7.70376 12.9256C7.9681 11.5757 8.46426 10.3971 9.4306 9.43072C10.3969 8.46439 11.5756 7.96822 12.9254 7.70389C14.2298 7.44822 15.8028 7.38972 17.6466 7.37455C17.86 7.37284 18.0716 7.41318 18.2695 7.49326C18.4673 7.57334 18.6474 7.69161 18.7995 7.8413C18.9516 7.99099 19.0727 8.16917 19.1559 8.36567C19.2392 8.56218 19.2829 8.77315 19.2846 8.98655ZM24.7078 8.98655C24.7095 8.77297 24.7533 8.56182 24.8366 8.36517C24.92 8.16852 25.0413 7.99024 25.1937 7.84052C25.346 7.69081 25.5263 7.57259 25.7244 7.49263C25.9225 7.41268 26.1343 7.37255 26.3479 7.37455C28.1896 7.38972 29.7626 7.44822 31.0691 7.70389C32.4189 7.96822 33.5954 8.46439 34.5618 9.43072C35.5281 10.3971 36.0264 11.5757 36.2908 12.9256C36.5464 14.2299 36.6028 15.8029 36.6179 17.6467C36.6198 17.8601 36.5796 18.0718 36.4996 18.2697C36.4197 18.4675 36.3015 18.6477 36.1519 18.7999C36.0024 18.9521 35.8242 19.0733 35.6278 19.1567C35.4314 19.2401 35.2204 19.284 35.007 19.2858C34.7936 19.2877 34.5819 19.2475 34.3841 19.1675C34.1862 19.0875 34.006 18.9694 33.8538 18.8198C33.7016 18.6702 33.5804 18.4921 33.497 18.2957C33.4136 18.0992 33.3698 17.8883 33.3679 17.6749C33.3528 15.8202 33.2921 14.5246 33.1014 13.5496C32.9194 12.6222 32.6421 12.1066 32.2651 11.7296C31.8859 11.3526 31.3724 11.0752 30.4451 10.8932C29.4701 10.7026 28.1744 10.6397 26.3198 10.6246C26.1064 10.6229 25.8954 10.5791 25.6989 10.4959C25.5024 10.4127 25.3242 10.2915 25.1745 10.1394C25.0248 9.98732 24.9066 9.80722 24.8265 9.60941C24.7464 9.4116 24.7061 9.19995 24.7078 8.98655ZM10.6244 26.3199C10.6207 25.8889 10.4459 25.4771 10.1385 25.175C9.83113 24.8729 9.41632 24.7052 8.98535 24.709C8.55437 24.7127 8.14253 24.8875 7.84042 25.1949C7.53832 25.5023 7.3707 25.9171 7.37443 26.3481C7.3896 28.1897 7.4481 29.7649 7.70376 31.0692C7.9681 32.4191 8.46426 33.5977 9.4306 34.5641C10.3969 35.5304 11.5756 36.0266 12.9254 36.2909C14.2298 36.5487 15.8028 36.6051 17.6466 36.6202C18.0776 36.624 18.4924 36.4563 18.7998 36.1542C19.1072 35.8521 19.2819 35.4403 19.2857 35.0093C19.2894 34.5783 19.1218 34.1635 18.8197 33.8561C18.5176 33.5487 18.1057 33.374 17.6748 33.3702C15.8201 33.3551 14.5244 33.2922 13.5494 33.1037C12.6221 32.9217 12.1064 32.6422 11.7294 32.2652C11.3524 31.8882 11.0751 31.3726 10.8931 30.4452C10.7024 29.4702 10.6396 28.1746 10.6244 26.3199ZM35.0081 24.7101C35.4387 24.7141 35.8501 24.8888 36.152 25.1959C36.4538 25.5031 36.6214 25.9174 36.6179 26.3481C36.6028 28.1897 36.5464 29.7649 36.2908 31.0692C36.0264 32.4191 35.5281 33.5977 34.5618 34.5641C33.5954 35.5304 32.4168 36.0266 31.0691 36.2909C29.7626 36.5487 28.1896 36.6051 26.3458 36.6202C26.1324 36.6219 25.9207 36.5816 25.7229 36.5015C25.5251 36.4214 25.345 36.3031 25.1929 36.1535C25.0408 36.0038 24.9197 35.8256 24.8364 35.6291C24.7532 35.4326 24.7095 35.2216 24.7078 35.0082C24.7061 34.7948 24.7464 34.5832 24.8265 34.3854C24.9066 34.1876 25.0248 34.0075 25.1745 33.8554C25.3242 33.7033 25.5024 33.5821 25.6989 33.4989C25.8954 33.4156 26.1064 33.3719 26.3198 33.3702C28.1744 33.3551 29.4701 33.2922 30.4429 33.1037C31.3724 32.9217 31.8859 32.6422 32.2629 32.2652C32.6421 31.8882 32.9194 31.3726 33.1014 30.4452C33.2921 29.4702 33.3528 28.1746 33.3701 26.3199C33.3741 25.8893 33.5489 25.4779 33.856 25.176C34.1631 24.8742 34.5775 24.7066 35.0081 24.7101Z" fill="white"/>
</svg>
