<svg width="44" height="44" viewBox="0 0 44 44" fill="none" xmlns="http://www.w3.org/2000/svg">
<path fill-rule="evenodd" clip-rule="evenodd" d="M43.6665 21.9997C43.6665 33.9662 33.9663 43.6663 21.9998 43.6663C10.0333 43.6663 0.33313 33.9662 0.33313 21.9997C0.33313 10.0332 10.0333 0.333008 21.9998 0.333008C33.9663 0.333008 43.6665 10.0332 43.6665 21.9997ZM17.6751 7.37684C18.1057 7.38085 18.5171 7.5556 18.819 7.86273C19.1208 8.16986 19.2884 8.58423 19.285 9.01484C19.2698 10.8587 19.2135 12.4317 18.9578 13.7382C18.6935 15.088 18.1951 16.2645 17.2288 17.2308C16.2625 18.1972 15.0838 18.6955 13.734 18.9598C12.4296 19.2155 10.8566 19.2718 9.0128 19.287C8.7994 19.2887 8.58775 19.2484 8.38995 19.1683C8.19214 19.0882 8.01204 18.9699 7.85994 18.8202C7.70784 18.6706 7.58671 18.4924 7.50347 18.2959C7.42023 18.0994 7.3765 17.8884 7.3748 17.675C7.37309 17.4616 7.41343 17.25 7.49352 17.0522C7.5736 16.8544 7.69187 16.6743 7.84156 16.5222C7.99124 16.3701 8.16943 16.2489 8.36593 16.1657C8.56243 16.0824 8.7734 16.0387 8.9868 16.037C10.8415 16.0218 12.135 15.9612 13.11 15.7705C14.0395 15.5885 14.553 15.3112 14.93 14.932C15.3091 14.555 15.5865 14.0415 15.7685 13.112C15.9591 12.137 16.0198 10.8413 16.035 8.98884C16.0367 8.77526 16.0805 8.5641 16.1638 8.36746C16.2472 8.17081 16.3685 7.99253 16.5209 7.84281C16.6732 7.6931 16.8535 7.57488 17.0516 7.49492C17.2497 7.41497 17.4615 7.37484 17.6751 7.37684ZM26.3201 7.37684C26.5335 7.37513 26.7452 7.41546 26.943 7.49555C27.1408 7.57563 27.3209 7.6939 27.473 7.84359C27.6251 7.99327 27.7462 8.17146 27.8295 8.36796C27.9127 8.56447 27.9564 8.77544 27.9581 8.98884C27.9733 10.8413 28.034 12.137 28.2246 13.112C28.4066 14.0415 28.6861 14.555 29.0631 14.932C29.4401 15.3112 29.9536 15.5885 30.8831 15.7705C31.8581 15.9612 33.1538 16.0218 35.0085 16.037C35.4394 16.0407 35.8513 16.2155 36.1534 16.5229C36.4555 16.8303 36.6231 17.2451 36.6194 17.6761C36.6156 18.1071 36.4409 18.5189 36.1335 18.821C35.8261 19.1231 35.4113 19.2907 34.9803 19.287C33.1386 19.2718 31.5635 19.2155 30.257 18.9598C28.9071 18.6955 27.7306 18.1972 26.7643 17.2308C25.798 16.2645 25.3018 15.0858 25.0353 13.736C24.7796 12.4317 24.7233 10.8587 24.7081 9.01484C24.7047 8.58423 24.8723 8.16986 25.1741 7.86273C25.476 7.5556 25.8874 7.38085 26.318 7.37684H26.3201ZM9.0128 24.7102C8.58182 24.7067 8.16713 24.8746 7.85994 25.1769C7.55276 25.4792 7.37824 25.8912 7.3748 26.3222C7.37135 26.7532 7.53925 27.1678 7.84156 27.475C8.14386 27.7822 8.55582 27.9567 8.9868 27.9602C10.8415 27.9753 12.135 28.036 13.11 28.2267C14.0395 28.4087 14.553 28.686 14.93 29.063C15.3091 29.4422 15.5865 29.9557 15.7685 30.883C15.9591 31.858 16.0198 33.1537 16.035 35.0083C16.0368 35.2217 16.0807 35.4327 16.164 35.6291C16.2474 35.8256 16.3687 36.0037 16.5209 36.1533C16.6731 36.3029 16.8533 36.421 17.0511 36.501C17.249 36.5809 17.4606 36.6211 17.674 36.6193C17.8874 36.6174 18.0984 36.5735 18.2948 36.4902C18.4913 36.4068 18.6694 36.2856 18.819 36.1333C18.9686 35.9811 19.0867 35.801 19.1667 35.6031C19.2466 35.4052 19.2868 35.1936 19.285 34.9802C19.2698 33.1385 19.2135 31.5655 18.9578 30.259C18.6935 28.9092 18.1951 27.7327 17.2288 26.7663C16.2625 25.8 15.0838 25.3017 13.734 25.0373C12.4296 24.7817 10.8566 24.7253 9.0128 24.708V24.7102ZM36.6183 26.32C36.6218 26.7506 36.4542 27.165 36.1523 27.4721C35.8505 27.7792 35.4391 27.954 35.0085 27.958C33.1538 27.9753 31.8581 28.036 30.8831 28.2267C29.9536 28.4087 29.4401 28.686 29.0631 29.063C28.684 29.4422 28.4066 29.9557 28.2246 30.883C28.034 31.858 27.9733 33.1537 27.9581 35.0083C27.9563 35.2217 27.9124 35.4327 27.829 35.6291C27.7457 35.8256 27.6244 36.0037 27.4722 36.1533C27.32 36.3029 27.1398 36.421 26.942 36.501C26.7441 36.5809 26.5324 36.6211 26.319 36.6193C26.1056 36.6174 25.8947 36.5735 25.6983 36.4902C25.5018 36.4068 25.3237 36.2856 25.1741 36.1333C25.0245 35.9811 24.9064 35.801 24.8264 35.6031C24.7465 35.4052 24.7063 35.1936 24.7081 34.9802C24.7233 33.1385 24.7796 31.5655 25.0353 30.259C25.3018 28.9092 25.798 27.7327 26.7643 26.7663C27.7306 25.8 28.9093 25.3017 30.2591 25.0373C31.5635 24.7817 33.1365 24.7253 34.9803 24.708C35.1937 24.7063 35.4053 24.7466 35.6032 24.8267C35.801 24.9068 35.9811 25.0251 36.1332 25.1748C36.2853 25.3244 36.4064 25.5026 36.4896 25.6991C36.5729 25.8956 36.6166 26.1066 36.6183 26.32Z" fill="white"/>
</svg>
