<svg width="19" height="18" viewBox="0 0 19 18" fill="none" xmlns="http://www.w3.org/2000/svg">
<path d="M10.7151 0.0585938C14.9564 0.480037 18.337 3.84262 18.7405 8.10189C18.8586 9.27265 18.7446 10.4552 18.405 11.5819C18.0654 12.7085 17.5069 13.7571 16.7614 14.6675C16.0159 15.5779 15.0981 16.3323 14.0606 16.8875C13.023 17.4426 11.8862 17.7876 10.7151 17.9027V16.1093C13.979 15.7237 16.5436 13.1323 16.9561 9.86836C17.0722 8.93328 17.0029 7.98446 16.752 7.0762C16.5011 6.16794 16.0736 5.31805 15.4939 4.57516C14.9143 3.83227 14.1939 3.21096 13.3739 2.74676C12.5538 2.28257 11.6504 1.9846 10.7151 1.8699V0.0585938ZM8.92172 0.0854944V1.87887C7.63946 2.05821 6.42893 2.57829 5.42464 3.38531L4.14237 2.05821C5.50239 0.93752 7.16719 0.25036 8.92172 0.0854944ZM2.87804 3.32254L4.16031 4.6048C3.36583 5.61779 2.85795 6.82555 2.68974 8.10189H0.896362C1.0757 6.34438 1.74822 4.68551 2.87804 3.32254ZM0.905329 9.89526H2.69871C2.86011 11.1686 3.37122 12.3791 4.16031 13.3923L2.88701 14.6746C1.77303 13.3097 1.08402 11.648 0.905329 9.89526ZM5.42464 14.7105C6.4379 15.4996 7.64843 16.0107 8.92172 16.1721V17.9655C7.16421 17.7772 5.49637 17.0688 4.14237 15.9389L5.42464 14.7105ZM9.81841 4.96348L5.78331 8.99858H8.92172V12.5853H10.7151V8.99858H13.8535L9.81841 4.96348Z" fill="white"/>
</svg>
